<?xml version="1.0" encoding="UTF-8" standalone="no"?>
<!-- Created with Inkscape (http://www.inkscape.org/) -->

<svg
   xmlns:svg="http://www.w3.org/2000/svg"
   xmlns="http://www.w3.org/2000/svg"
   xmlns:xlink="http://www.w3.org/1999/xlink"
   version="1.1"
   width="939.74725"
   height="476.7276"
   viewBox="0 0 2752.77 1537.63"
   id="svg2">
  <defs
     id="defs4">
    <g
       id="s">
      <g
         id="c">
        <path
           d="M 0,0 V 1 H 0.5 z"
           transform="matrix(0.95105652,0.30901699,-0.30901699,0.95105652,0,-1)"
           id="t" />
        <use
           transform="scale(-1,1)"
           id="use9"
           x="0"
           y="0"
           width="2752.77"
           height="1537.63"
           xlink:href="#t" />
      </g>
      <g
         id="a">
        <use
           transform="matrix(0.30901699,0.95105652,-0.95105652,0.30901699,0,0)"
           id="use12"
           x="0"
           y="0"
           width="2752.77"
           height="1537.63"
           xlink:href="#c" />
        <use
           transform="matrix(-0.80901699,0.58778525,-0.58778525,-0.80901699,0,0)"
           id="use14"
           x="0"
           y="0"
           width="2752.77"
           height="1537.63"
           xlink:href="#c" />
      </g>
      <use
         transform="scale(-1,1)"
         id="use16"
         x="0"
         y="0"
         width="2752.77"
         height="1537.63"
         xlink:href="#a" />
    </g>
  </defs>
  <style
     type="text/css"
     id="style_css_sheet" />
  <path
     d="m 2079.5058,61.986565 -1464.25801,0 c -0.117,0 -0.177,0.007 -0.296,0.039 -3.275,0.87 -6.55,1.74 -9.824,2.611 -5.977,1.588 -11.899,3.388 -17.82,5.172 -22.914,6.907 -45.542,15.039 -67.838,23.727 -23.659,9.217995 -47.12,18.916905 -70.278,29.329905 -22.408,10.07599 -44.015,21.628 -65.428,33.646 -20.646,11.586 -40.753,24.20599 -60.384,37.43599 -21.088,14.212 -41.901,28.749 -62.326,43.89901 -18.703,13.87299 -37.317,28.07 -55.001,43.232 -19.066,16.347 -38.229,32.69799 -55.7,50.778 -17.375,17.97999 -34.02,36.62999 -50.196,55.693 -15.804013,18.624 -30.070014,38.52599 -43.255004,59.07299 -12.855,20.03301 -24.80801,40.789 -34.43201,62.58201 -4.953,11.21503 -10.061,22.57703 -13.7679999,34.28203 -3.636,11.4789 -7.102,23.01797 -10.295,34.63003 -6.417,23.33697 -12.4620001,46.64697 -16.6410001,70.50997 -4.256998,24.312 -6.659998,48.722 -8.708998,73.299 -2.004,24.036 -1.886,48.22 -0.282,72.273 1.577,23.65 3.862,47.424 7.951,70.784 4.255998,24.313 9.8899981,48.113 16.4329981,71.903 6.41,23.309 13.3249999,46.313 23.1069999,68.463 10.055,22.769 22.05301,44.289 35.23701,65.382 13.00999,20.813 27.605991,40.549 43.184001,59.499 15.048003,18.306 31.003003,36.065 47.465003,53.109 17.623,18.246 36.494,35.063 55.744,51.561 18.438,15.803 37.658,30.663 57.064,45.251 19.468,14.636 39.434,28.563 59.596,42.221 20.714,14.031 41.923,27.255 63.595,39.75 21.315,12.289 43.164,23.437 65.454,33.832 21.981,10.25 44.545,19.417 67.141,28.218 22.703,8.843 45.633,17.18 68.889,24.461 6.059,1.897 12.166,3.638 18.274,5.365 2.722,0.77 5.452,1.504 8.186,2.231 1.505,0.4 3.471,1.332 5.039,1.332 l 1464.83001,0 c 0.016,0 0.032,0 0.048,0 -0.167,0 -0.333,0 -0.5,0 23.315,-6.205 46.366,-13.337 69.033,-21.625 23.093,-8.443 46.071,-17.268 68.69,-26.918 23.286,-9.936 46.25,-20.423 68.648,-32.235 21.098,-11.126 41.935,-23.021 61.978,-35.957 21.081,-13.605 41.889,-27.571 62.361,-42.079 19.515,-13.829 38.772,-28.187 57.399,-43.192 19.261,-15.516 38.42,-31.313 56.433,-48.281 17.817,-16.784 34.697,-34.399 50.887,-52.763 16.307,-18.496 32.207,-37.27 46.51,-57.382 13.898,-19.544 26.996,-40.009 38.139,-61.259 11.534,-21.996 21.515,-44.67899 29.029,-68.373 3.633,-11.456 6.718,-23.097 9.942,-34.672 3.213,-11.531 6.363,-23.097 8.897,-34.80199 5.168,-23.88101 9.214,-47.95401 11.66,-72.27201 2.454,-24.39599 4.062,-48.767 3.863,-73.294 -0.19,-23.56399 -2.29,-47.34699 -5.212,-70.721 -3.032,-24.259 -7.249,-48.35 -13.129,-72.089 -2.959,-11.943 -6.245,-23.795 -9.602,-35.63097 -3.291,-11.60313 -6.482,-23.30313 -10.639,-34.63003 -8.307,-22.64203 -18.23,-44.72203 -30.265,-65.64303 -12.138,-21.10201 -25.284,-41.682 -39.896,-61.165 -15.072,-20.09701 -31.57,-38.97501 -48.343,-57.66001 -16.065,-17.89699 -33.003,-35.102 -51.03,-51.03199 -18.786,-16.60301 -37.967,-32.65101 -57.709,-48.104 -18.857,-14.762 -38.189,-28.96501 -57.837,-42.655 -20.617,-14.366 -41.565,-28.19001 -62.843,-41.557 -10.067,-6.32401 -20.47,-12.155 -30.834,-17.97401 -10.607,-5.957 -21.256,-12.06499 -32.197,-17.39199 -22.711,-11.05501 -45.668,-21.383 -69.056,-30.9229 -22.604,-9.221005 -45.321,-18.003005 -68.366,-26.068005 -18.611,-6.512 -37.466,-12.163 -56.517,-17.226"
     id="ocean"
     style="color:#000000;fill:#ffffff;stroke:#000000;stroke-width:0.5;stroke-miterlimit:1" />
  <g
     transform="translate(-0.120074,-0.025157)"
     id="ge"
     style="fill:#b9b9b9;stroke:#ffffff;stroke-width:0.5">
    <path
       d="m 1554.4563,384.69355 c 0.025,-3.86382 7.9783,-0.31418 9.497,0.351 1.8035,0.78992 3.2096,1.39466 5.2886,0.99175 0.9803,-0.18997 1.7777,-0.36358 2.9584,0.32625 0.4396,0.25683 1.92,-0.1688 2.716,0.29 1.8133,1.04522 3.3441,1.73612 4.124,2.233 0.345,0.21979 1.1533,0.34912 2.2313,1.45481 0.693,0.71073 -0.2871,0.27594 0.5589,0.61794 2.145,0.865 5.3638,-2.80194 6.7568,0.0801 0.4601,-1.87783 2.4289,-0.52819 2.776,-0.34481 0.375,0.338 0.685,0.75662 1.184,0.92962 0.809,0.28 2.447,-0.25962 2.857,0.93538 0.298,0.87 -0.703,1.51575 0.166,2.27175 1.34,1.166 2.992,1.15325 4.477,1.80325 2.39,1.045 -1.1826,1.79011 -0.017,3.166 0.7235,0.854 4.0538,2.211 3.849,3.321 -0.4571,2.47786 -3.297,-0.0331 -4.047,0.23993 -2.007,0.732 -3.1558,-1.57074 -5.0378,-1.93974 -0.755,-0.148 -1.4712,0.0458 -2.0312,0.50881 -0.528,0.437 -1.98,0.935 -1.727,1.27 -1.228,0.085 -2.455,-0.16 -3.685,-0.082 -1.285,0.082 -2.371,0.66 -3.703,0.655 -1.289,-0.004 -1.8279,-0.16171 -2.9191,-0.28366 -0.1917,-0.0214 -1.8622,0.0645 -1.5756,-0.56999 0.1869,-0.4138 0.025,-0.78639 -0.4159,-0.68033 -0.1243,0.0113 -1.7563,-1.81973 -2.6824,-1.56102 0.639,-1.426 -1.5618,-0.52831 -1.7952,0.35325 -0.238,0.89876 -3.1408,-0.10312 -3.8818,-0.28952 -0.5216,0.093 -0.5402,0.96704 -1.427,0.48727 -0.4376,-0.23678 -1.2699,-0.75253 -1.687,-0.53395 -0.066,-0.14814 0.091,-0.32249 0.287,-0.84605 0.5995,-1.60068 1.287,-2.534 0.172,-4.109 -1.062,-1.499 -1.204,-3.443 -2.239,-4.958 -0.857,-1.255 -2.425,-1.122 -3.336,-2.317 -0.852,-1.119 -2.649,-1.276 -3.896,-1.456 -1.732,-0.251 -2.151,-2.081 -3.796,-2.315"
       id="ge-" />
    <path
       d="m 1554.4563,384.69355 c 1.645,0.234 2.064,2.064 3.796,2.315 1.247,0.18 3.044,0.337 3.896,1.456 0.911,1.195 2.4789,1.06204 3.336,2.317 0.262,0.38358 0.4668,0.79456 0.6438,1.21891 0,0 -0.052,0.13909 0.2507,-0.11289 0.3024,-0.25198 0.252,-0.22678 0.4536,-0.57956 0.2016,-0.35278 0.1512,-0.37798 0.4284,-0.57956 0.2772,-0.20159 0.7055,-0.27718 0.8063,-0.60476 0.1008,-0.32758 0.1008,-1.4867 0,-1.91507 -0.1008,-0.42838 0.4032,-0.95754 0.8568,-1.20952 0.4535,-0.25199 0.3527,-0.93234 0.3354,-0.94757 -2.0964,0.38768 -3.5025,-0.21706 -5.306,-1.00698 -1.5187,-0.66518 -9.4719,-4.21482 -9.497,-0.351"
       id="abkhazia"
       style="stroke:none" />
    <path
       d="m 1581.2716,390.34036 c 0.693,0.71073 -0.2873,0.27636 0.5589,0.61794 1.1756,0.47458 2.6743,-0.41344 4.0178,-0.83765 0,0 0.245,0.31103 0.2628,0.5783 0.018,0.26727 0.053,0.55236 0.4276,0.71272 0.3742,0.16036 1.1404,0.55235 1.4255,0.71271 0.2851,0.16036 0.4098,1.3898 0.4098,1.56798 0,0.17818 -0.036,0.87307 -0.6058,1.03344 -0.5702,0.16036 -0.9444,0.48108 -1.1226,0.53453 -0.1781,0.0535 -0.4098,0.16036 -0.8909,-0.44544 -0.481,-0.60581 -1.8352,-1.10471 -1.9243,-1.15817 -0.089,-0.0534 -0.8196,0.4989 -1.176,0.64145 -0.3563,0.14254 -1.5858,-0.33854 -1.6214,-0.55236 -0.036,-0.21381 0.018,-0.74835 -0.071,-0.92653 -0.089,-0.17818 -0.2316,-0.55235 -0.4454,-0.80181 -0.2138,-0.24945 -0.4099,-0.81962 -0.018,-1.14034 0.392,-0.32073 0.7841,-0.55236 0.7732,-0.53677 z"
       id="south_ossetia"
       style="stroke:none" />
  </g>
  <path
     d="m 1720.2763,501.18955 c 3.178,0.715 6.087,2.275 9.198,3.207 3.705,1.11 6.684,-0.036 10.378,-0.109 1.313,-0.026 2.42,0.505 3.692,0.691 1.307,0.191 2.215,-0.736 3.362,-1.153 1.512,-0.55 2.929,0.072 4.437,-0.006 1.272,-0.065 2.473,-0.716 3.709,-1.001 1.435,-0.331 4.223,-0.57 5.133,-1.916 0.544,-0.803 -0.751,-1.239 -0.599,-2.017 0.368,-1.89 -0.505,-3.415 -0.325,-5.256 0.184,-1.866 0.548,-1.445 1.648,-2.549 0.677,-0.678 0.845,-1.809 1.743,-2.278 0.938,-0.491 1.257,0.503 2.165,0.608 1.547,0.18 2.915,-0.313 4.269,-1.036 -0.558,-0.583 -1.568,-0.62 -1.8,-1.512 1.33,-0.024 2.706,-0.859 3.416,-1.947 0.84,-1.286 2.928,0.901 2.993,-0.717 0.991,0.466 1.405,0.246 2.011,1.28 0.511,0.873 1.313,0.575 2.016,0.047 1.882,-1.415 1.411,-4.026 0.659,-5.894 -0.482,-1.199 0.459,-1.386 0.715,-2.418 0.199,-0.806 0.224,-2.031 -0.064,-2.819 -0.344,-0.937 0.646,-1.101 1.309,-1.249 1.098,-0.246 1.677,0.124 2.68,-0.679 1.222,-0.978 1.188,-1.028 0.687,-2.237 -0.419,-1.01 -1.009,-2.121 -1.96,-2.721 -1.864,-1.178 -2.152,-2.87 0.455,-2.159 1.776,0.484 6.075,1.058 6.559,-1.47 0.144,-0.746 0.139,-1.305 -0.443,-1.81 -0.249,-0.216 -1.368,-0.94 -1.154,-1.386 0.192,-0.197 0.434,-0.279 0.724,-0.246 -0.337,-0.716 0.25,-1.266 0.645,-1.767 0.365,-0.462 1.655,-1.518 1.655,-2.085 0.01,-0.538 0.18,-1.016 0.519,-1.433 0.261,-0.369 -0.648,-0.743 -0.769,-0.979 -0.105,-0.262 -0.037,-0.456 0.207,-0.581 0.402,-0.424 -0.287,-1.283 -0.402,-1.681 -0.155,-0.53 -1.068,-1.788 -1.432,-2.245 -0.522,-0.657 -1.374,-1.099 -2.007,-1.644 -0.859,-0.74 1.724,-3.906 2.558,-3.646 1.147,0.357 1.233,-0.896 1.913,-1.583 0.72,-0.727 1.656,-1.194 2.623,-1.499 2.077,-0.655 4.3,-0.661 6.455,-0.745 1.092,-0.042 2.614,-0.612 3.622,-0.107 0.99,0.495 1.066,0.771 1.98,0.093 1.252,-0.93 4.367,-2.479 5.253,-0.33 0.89,-1.597 3.198,-0.285 3.904,0.799 0.651,1.002 2.454,0.455 3.503,1.433 0.744,0.694 1.229,1.483 1.486,2.466 0.188,0.713 0.118,1.936 0.395,2.548 0.301,0.668 1.833,1.576 2.405,2.09 0.737,0.663 1.729,-0.447 2.416,-0.624 0.1332,3.10272 7.2908,4.13933 9.7644,3.59854 -0.6511,0.74332 -4.9133,2.74299 -4.5784,3.74146 0.1523,0.45422 -1.2102,1.67408 -0.6662,1.23218 0.2899,-0.23549 -0.7827,0.61959 -1.0883,1.10546 -0.307,0.48816 -4.7057,1.07138 -5.4745,1.60536 -2.1855,1.51802 -4.1243,0.32409 -6.7019,-0.21609 -2.0781,-0.4355 -4.6316,-1.82164 -6.6466,-0.57964 -1.372,0.845 -2.2945,2.74973 -0.5575,3.47973 1.589,0.668 -0.615,1.61046 0.7,2.02946 0.434,0.138 3.3846,0.0134 2.2436,1.13845 -1.034,1.021 -2.3819,1.7445 -0.4483,2.90818 1.8111,1.09 -0.4861,2.59164 0.4422,3.68464 0.5543,0.65251 1.4815,1.01027 2.1515,1.51327 0.304,0.199 0.5357,0.47426 0.533,0.837 -0.01,0.75779 0.2693,0.84262 1.358,1.018 2.1111,0.34007 1.0343,2.22268 2.9612,2.63646 1.0889,0.23383 3.1278,0.44554 3.9058,1.36254 0.957,1.128 -2.085,2.229 -2.698,2.513 -1.563,0.725 -3.3732,2.16235 -1.769,3.741 1.1696,1.151 -0.4267,4.226 1.608,4.269 -0.1991,0.82931 -1.6111,1.48547 -2.3815,2.41091 -0.9677,1.16258 -3.1917,3.51049 -2.1207,4.392 1.9357,1.59316 -1.6814,2.48813 -2.4543,2.87609 -0.8607,0.43195 -0.8635,1.858 -0.9985,2.68 -0.229,1.395 -0.607,2.831 -1.236,4.103 -0.937,1.892 -2.5416,2.14646 -3.8716,3.59746 -0.536,0.584 -0.7923,1.62208 -0.8603,2.39308 -0.121,1.361 -1.5781,2.18764 -2.0611,3.38864 -1.028,2.551 -2.526,1.73082 -4.953,2.37882 -0.827,0.221 -1.762,1.071 -2.653,0.984 -1.07,-0.104 -1.556,-1.396 -2.087,-2.142 -1.248,-1.748 -3.105,0.905 -3.59,1.998 -0.859,1.938 -2.264,3.6 -3.045,5.505 -0.962,2.346 0.363,3.658 2.603,4.221 2.089,0.524 3.118,0.633 2.92,3.191 -0.112,1.462 -0.388,4.733 2.122,4.76 0.723,0.008 1.558,-0.518 2.198,0.064 0.636,0.578 0.123,2.152 0.687,2.961 1.157,1.663 2.438,2.907 2.983,4.958 0.209,0.786 0.659,0.551 -0.107,1.099 -0.611,0.437 0.392,1.893 0.907,1.997 -1.358,1.027 -2.78,2.313 -3.931,0.39 -0.535,-0.894 -1.35,-0.225 -2.025,0.045 -0.339,0.095 -0.673,0.208 -1.001,0.337 -0.545,0.28 -0.201,0.958 -0.788,1.208 -1.938,0.82 -4.114,-1.049 -6.146,-0.938 -1.086,0.06 -2.529,0.251 -3.539,-0.25 0.061,0.797 0.772,3.024 -0.672,3.024 -1.224,0 -3.089,0.03 -2.998,1.728 -0.081,-0.984 -0.201,-0.96 -0.36,0.072 -0.48,-0.418 -0.798,-0.992 -1.149,-1.512 0.258,0.452 0.328,0.933 0.21,1.439 -0.529,-0.327 -0.985,-0.735 -1.37,-1.224 0.328,1.318 -0.715,0.575 -1.51,1.008 0,-0.384 0,-0.769 0,-1.152 -0.877,0.629 -1.997,-0.559 -1,-1.151 -1.175,0.221 -2.83,-1.49 -1.59,-2.448 -1.371,-0.787 -0.634,-3.055 -1.767,-3.622 -0.635,-0.316 -3.848,-0.454 -3.756,-1.48 0.182,-2.076 -0.29,-2.689 -1.318,-4.331 -0.765,-1.218 -3.056,-2.471 -3.45,-0.287 1.238,-0.063 2.063,-1.163 2.73,0.504 -1.321,-0.852 -2.803,-0.327 -4.163,0.102 -1.418,0.447 -2.776,-0.047 -4.122,0.358 -0.731,0.22 -5.832,0.15 -4.525,1.556 -0.595,0.178 -0.983,-0.103 -1.01,-0.72 -1.972,1.02 -3.539,-1.929 -4.609,-1.44 0.164,0.242 0.33,0.482 0.5,0.721 -0.995,0.203 -5.066,-1.104 -4.03,1.296 -1.037,-0.527 -8.824,-1.104 -8.14,0.863 -0.524,-0.022 -0.93,-0.783 -1.355,-1.025 -0.735,-0.419 -0.739,0.569 -1.189,0.832 -1.809,1.054 -3.131,-0.143 -3.07,-1.742 0.082,-2.155 -0.429,-9.946 3.745,-9.008 -1.224,-3.214 6.177,-1.473 6.538,-3.237 0.158,-0.77 0.441,-3.703 0.113,-3.963 -0.789,-0.626 -1.832,-0.172 -2.724,-0.229 -1.279,-0.081 -1.088,-2.188 -1.119,-3.052 -0.06,-1.663 -0.584,-3.8 -1.107,-5.391 -0.242,-0.736 -1.539,-0.782 -2.188,-1.184 -1.077,-0.665 -2.184,-1.067 -3.325,-1.596 -2.531,-1.172 -3.572,-2.886 -4.855,-5.225 -1.365,-2.481 -3.548,-4.455 -5.517,-6.438"
     id="Pakistan"
     style="fill:#b9b9b9;stroke:#ffffff;stroke-width:0.5" />
  <g
     transform="translate(-29.9017,-45.0745)"
     id="Yemen"
     style="fill:#b9b9b9;stroke:#ffffff;stroke-width:0.30000001">
    <path
       d="m 1625.188,684.288 c 0.096,-0.331 0.118,-0.667 0.069,-1.008 -1.102,0.177 -0.653,0.617 -0.069,1.008"
       id="path2190" />
    <path
       d="m 1698.268,699.552 c -0.042,-0.778 -1.002,-0.504 -1.439,-0.432 0.479,0.144 0.959,0.288 1.439,0.432"
       id="path2192" />
    <path
       d="m 1708.918,698.112 c 1.685,-0.387 4.609,-0.202 5.471,-2.088 -1.012,-0.607 -2.35,-1.537 -3.598,-1.256 -0.591,0.134 -1.101,0.521 -1.734,0.46 -0.67,-0.063 -1.245,-0.648 -1.941,-0.522 -0.76,0.137 -1.436,1.617 -0.808,2.171 0.655,0.581 1.737,1.11 2.61,1.235"
       id="path2194" />
    <path
       d="m 1702.658,660.279 c -2.426,-0.09 -1.0536,-5.06093 -3.4596,-5.34393 1.0794,-1.71427 -2.9223,-7.03311 -3.6111,-8.90907 l -2.8076,-6.48875 c -7.1249,1.40009 -14.2832,2.93331 -21.295,3.88069 -5.8504,1.80488 -8.8025,4.71243 -10.1257,7.87906 -1.221,1.824 -1.874,6.43 -4.801,6.253 -1.992,-0.12 -1.775,-3.107 -3.691,-2.881 -2.415,0.285 -4.391,0.24 -6.839,-0.104 -1.389,-0.195 -2.813,-1.184 -4.174,-1.184 -1.507,0 -3.008,0.145 -4.506,0.287 -1.839,0.174 -3.392,1 -5.298,0.895 -1.048,-0.058 -1.437,-1.224 -2.508,-1.357 -1.024,-0.128 -1.812,0.563 -2.241,1.429 -0.469,0.945 -0.619,2.091 -0.442,3.129 0.114,0.672 1.056,1.339 0.544,2.028 -0.484,0.653 -0.868,1.324 -1.366,2.004 -0.266,0.372 -0.601,0.665 -1.004,0.88 -0.96,0.48 -0.471,0.845 -0.273,1.898 0.312,1.668 -0.316,2.441 -0.613,3.961 -0.275,1.407 0.906,2.63 0.772,4.029 -0.267,-0.24 -1.701,-0.277 -1.462,0.282 -0.051,-0.117 1.447,0.726 1.444,0.722 0.802,0.856 1.102,1.742 1.375,2.862 0.538,2.196 0.58,4.644 1.27,6.78 0.283,0.877 0.987,1.533 1.321,2.388 0.401,1.031 0.022,2.149 0,3.204 -0.041,2.087 2.483,3.843 1.8,5.963 0.921,0.071 1.542,-0.446 2.474,-0.074 0.992,0.396 1.674,0.723 2.767,0.506 2.255,-0.447 3.258,-2.023 5.609,-0.79 -0.121,-0.64 0.561,-1.29 0.791,-0.359 0.389,-0.428 0.615,-0.925 0.929,-1.401 0.496,-0.753 1.301,-0.736 1.965,-1.238 1.48,-1.118 1.648,-2.245 3.686,-2.713 1.901,-0.437 3.916,-0.52 5.855,-0.342 1.142,0.104 3.057,-1.206 4.201,-1.53 1.707,-0.483 2.552,-1.96 4.054,-2.792 0.461,-0.255 1.111,-0.832 1.61,-0.981 0.551,0.018 1.076,0.149 1.576,0.391 0.564,0.027 1.116,-0.041 1.654,-0.203 3.628,-0.584 4.444,-4.338 7.705,-5.939 1.515,-0.744 2.853,-0.932 4.472,-1.215 1.995,-0.348 3.649,-1.686 5.612,-2.154 1.365,-0.326 2.748,-0.583 4.072,-1.061 1.323,-0.478 1.793,-1.532 2.911,-2.103 0.928,-0.474 2.93,-0.415 3.215,-1.675 0.331,-1.46 -0.683,-2.788 -0.153,-4.277 1.068,-3.009 4.742,-2.89 6.984,-4.536"
       id="path2592"
       style="fill:#b9b9b9;stroke:#ffffff;stroke-width:0.5" />
  </g>
  <path
     d="m 1530.7577,768.59905 c 1.5185,-1.1064 -2.2831,-5.71204 2.9841,-4.63075 0.011,-0.287 0.3004,-0.88103 -0.02,-1.4253 l 3.1286,-0.40576 c -2.0772,-3.1457 -2.9699,-0.6774 -3.9578,0.18585 -0.8442,0.73775 -2.9105,-2.52738 -2.8034,-4.51717 0.8008,-1.44363 0.2702,-2.10005 1.762,-3.45337 1.1071,-1.00439 1.9867,-4.31693 3.784,-5.126 0.8528,-0.38387 0.727,-0.515 0.68,-1.269 -0.072,-1.164 1.284,-1.724 1.581,-2.76 0.353,-1.231 0.4543,-2.437 0.5763,-3.672 0.109,-1.111 -1.0083,-1.89728 -1.2413,-3.143 -0.5228,-2.79483 -2.243,-3.402 -2.5,-4.633 -0.202,-0.977 -0.746,-1.806 -1.074,-2.736 -0.219,-0.409 -0.342,-0.844 -0.37,-1.307 0,-0.623 0.698,-0.977 0.51,-1.646 -0.167,-0.59 -0.813,-0.745 -1.311,-0.931 -1.13,-0.421 -0.303,-1.279 -1.499,-1.157 0.4889,-1.121 -0.906,-2.199 -0.7721,-2.982 0.1343,-0.78526 1.0911,-1.4 1.6251,-1.96 1.863,-1.955 4.146,-1.394 6.59,-1.394 1.402,0 2.807,-0.116 4.209,-0.131 0.687,-0.007 1.402,-0.041 2.084,0.067 0.59,0.093 0.771,1.127 1.479,1.401 2.181,0.847 4.615,-0.187 6.841,0.846 2.327,1.081 4.817,3.071 6.632,4.849 0.925,0.906 1.66,1.542 2.994,1.688 0.867,0.095 2.842,-0.443 3.523,-0.008 1.904,1.218 4.825,0.136 6.483,1.729 0.229,-1.133 1.788,-2.782 2.49,-3.758 1.248,-1.736 3.917,-2.431 5.761,-3.291 1.968,-0.917 2.313,1.242 3.783,2.101 1.009,0.59 2.102,0.205 3.151,0.015 0.85,-0.155 1.865,0.406 2.664,-0.035 -1.225,2.101 -2.353,4.397 -3.845,6.322 -1.576,2.032 -2.989,3.163 -2.984,5.893 0.011,6.449 0.068,12.897 0.062,19.347 -0.01,4.833 -0.968,9.416 2.277,13.365 1.1,1.339 2.757,3.068 1.576,4.823 -0.695,1.035 -2.766,2.925 -4.065,1.73 -0.104,0.26 -0.202,0.523 -0.29,0.79 -0.208,-0.25 -0.398,-0.514 -0.57,-0.79 0.34,0.786 1.21,2.235 0.43,3.029 -0.135,-1.958 -0.944,0.285 -1.141,0.736 -0.403,0.926 -1.179,1.104 -2.063,1.229 -1.962,0.276 -2.753,2.009 -2.128,3.662 0.286,0.757 -1.098,2.947 -1.668,3.41 -0.972,0.789 -1.788,6.098 -2.87,5.644 0.472,2.056 -1.584,3.517 -1.94,5.399 -0.837,-0.609 -0.741,0.456 -1.44,0.291 -0.882,-0.208 -2.0071,-1.74671 -2.688,-2.265 -3.0091,-2.29047 -6.7841,-4.78239 -8.6364,-7.25562 -0.4895,-0.65357 -1.3886,-0.75838 -0.3636,-1.89038 1.449,-1.6 -1.0866,-3.52808 -2.3914,-4.34413 l -25.0733,-15.68043"
     id="Kenya"
     style="fill:#b9b9b9;stroke:#ffffff;stroke-width:0.5" />
  <path
     d="m 1530.4073,505.50955 c -0.138,-2.414 0.834,-4.713 0.857,-7.113 0.027,-2.759 1.258,-4.805 1.592,-7.431 0.14,-1.094 -0.176,-2.21 -0.09,-3.321 0.082,-1.05 0.4315,-2.083 0.4705,-3.106 0.08,-2.144 -0.2136,-4.71905 -0.2926,-6.88305 -0.066,-1.837 2.2261,-1.27195 3.2731,-0.54795 1.725,1.192 3.2843,2.99786 5.6033,2.54186 2.335,-0.46 4.4837,-2.65586 6.4147,-3.94286 2.468,-1.644 4.932,-3.462 7.522,-4.901 0.799,2.56 1.847,5.031 2.73,7.561 -0.89,0.094 -0.309,1.309 0.264,1.456 0.908,0.233 2.0536,0.0902 0.5846,1.63118 -4.6085,2.81721 -9.2242,4.31051 -14.7637,5.69227 l 8.2594,8.66714 c -0.743,0.365 -2.7075,0.32047 -3.2365,0.98647 -0.608,0.766 0.081,2.31253 -0.5692,3.07853 -1.091,1.285 -3.8449,0.19077 -5.2589,1.54077 -1.613,1.54 -2.1405,4.43523 -4.4445,5.34223 -2.085,0.819 -6.8022,-0.70459 -8.9152,-1.25159"
     id="jo"
     style="fill:#b9b9b9;stroke:#ffffff;stroke-width:0.5" />
  <g
     transform="translate(-29.9017,-45.0745)"
     id="ae"
     style="fill:#b9b9b9;stroke:#ffffff;stroke-width:0.30000001">
    <path
       d="m 1703.018,595.872 c 0.5,0.033 0.883,-0.159 1.15,-0.576 -0.653,-0.54 -1.479,-0.413 -1.87,0.36 0.24,0.073 0.479,0.144 0.72,0.216"
       id="path2704" />
    <path
       d="m 1686.389,594.576 c 0.489,-0.323 0.68,-0.131 0.569,0.576 0.234,-0.222 0.475,-0.438 0.72,-0.648 0.467,0.682 0.053,1.668 0.58,2.304 0.51,0.615 1.69,0.473 2.381,0.433 0.898,-0.053 1.655,-0.195 2.346,-0.816 0.314,-0.282 0.677,-1.107 1.104,-1.2 0.463,-0.103 1.617,0.594 2.186,0.606 0.933,0.021 1.862,0.129 2.794,0.096 2.533,-0.09 4.28,1.076 6.761,-0.414 -0.225,-0.347 -0.465,-0.683 -0.72,-1.008 0.781,-0.295 0.673,0.645 1.29,0.576 0.898,-0.1 1.66,-1.183 2.026,-1.901 0.996,-1.958 1.123,-3.073 2.866,-4.528 1.697,-1.417 2.389,-3.972 3.993,-5.295 1.776,-1.464 2.842,-1.855 3.354,-4.26 1.294,0.066 0.736,1.938 0.746,2.728 0.018,1.494 1.641,0.737 1.835,2.397 0.194,1.665 1.3308,3.84195 0.021,5.13038 -2.7954,2.74974 -1.8957,0.82533 -2.3312,-0.35432 -0.425,-1.15142 -1.3048,0.95804 -1.1718,1.66794 0.1008,0.53767 -0.1459,0.54368 -0.063,1.121 0.089,0.618 0.4896,1.53499 0.4973,2.26006 0.021,2.01554 2.0413,1.10697 1.229,2.45232 -0.6465,1.07062 -2.7583,0.12962 -3.5753,1.10262 1.8818,1.04769 -0.9116,5.96428 -1.273,8.987 0.128,1.978 -0.881,2.43 -2.604,2.026 -2.12,-0.497 -4.312,-0.697 -6.464,-1.016 -2.257,-0.334 -4.513,-0.665 -6.777,-0.947 -1.663,-0.208 -3.657,0.122 -4.772,-1.358 -1.132,-1.503 -2.211,-3.027 -3.401,-4.491 -0.831,-1.023 -1.682,-2.028 -2.52,-3.045 -0.843,-1.029 -0.977,-2.092 -1.626,-3.182"
       id="path2784"
       style="fill:#b9b9b9;stroke:#ffffff;stroke-width:0.5" />
  </g>
  <g
     transform="translate(-29.9017,-45.0745)"
     id="Turkey"
     style="fill:#b9b9b9;stroke:#ffffff;stroke-width:0.5">
    <path
       d="m 1489.389,452.376 c 0.748,-0.356 1.778,-1.377 2.003,-2.188 0.35,-1.264 -0.621,-2.213 1.132,-3.004 0.958,-0.433 0.609,-0.439 0.368,-1.446 -0.142,-0.591 -0.378,-1.182 -1.014,-1.39 -2.297,-0.751 0.536,-1.113 0.406,-2.033 -0.036,-0.256 2.459,-0.967 2.864,-1.099 1.324,-0.431 2.102,-0.875 3.063,0.215 0.897,1.017 1.4,0.365 2.537,0.252 0.53,-0.053 1.153,0.003 1.583,0.359 0.732,0.606 -0.366,0.816 0.151,1.481 1.927,2.481 4.178,3.559 7.238,4.477 1.181,0.354 0.199,2.077 -0.532,2.348 -1.4,0.518 -3.432,-0.838 -4.856,-0.921 -0.705,-0.041 -1.136,0.45 -1.718,0.748 -0.715,0.366 -1.463,-0.269 -2.284,-0.023 -0.993,0.298 -1.402,1.368 -2.086,2.113 -1.111,1.21 -2.608,1.552 -3.888,2.486 -1.086,0.792 -2.133,3.002 -3.31,3.457 -0.355,-1.402 0.238,-2.86 1.619,-3.351 0.248,-0.088 2.896,-0.889 2.023,-1.607 -1.415,-1.167 -4.61,1.96 -5.299,-0.874"
       id="path3456" />
    <path
       d="m 1490.328,463.248 c 0.1,-0.745 0.192,-4.432 0.743,-4.643 1.366,-0.521 1.804,-2.501 3.217,-3.206 0.753,-0.375 1.718,0.287 2.416,-0.202 0.875,-0.612 1.253,-0.146 2.021,0.314 1.101,0.661 4.662,0.38 2.403,-0.976 0.717,-0.292 1.494,-0.254 2.23,-0.072 -0.365,0.132 -0.544,0.366 -0.536,0.701 0.422,0.59 2.563,0.242 3.108,0.192 1.677,-0.153 4.094,0.825 5.497,-0.389 -0.67,-0.655 -1.534,-0.081 -2.239,-0.647 0.904,-2.304 5.048,-1.436 6.92,-1.872 -1.616,-0.795 -3.923,-0.127 -5.278,-1.517 -1.521,-1.56 0.01,-2.854 1.641,-2.7 1.79,0.169 3.576,1.002 5.397,0.605 2.43,-0.529 4.403,0.796 6.88,0.551 1.144,-0.113 1.313,-0.7 1.737,-1.594 0.468,-0.985 2.215,-1.416 3.104,-1.937 2.566,-1.504 4.609,-2.826 7.511,-3.611 3.026,-0.819 5.346,-0.382 8.418,-0.382 1.239,0 2.553,0.51 3.78,0.144 0.567,-0.17 0.755,-0.847 1.3,-1.008 0.556,-0.163 1.038,0.167 1.58,0.216 -0.918,1.107 0.655,2.612 1.656,2.917 0.76,0.231 1.545,0.422 2.345,0.317 0.875,-0.114 1.619,-1.099 1.619,0.15 0.201,-1.856 1.394,0.402 1.568,0.933 0.23,0.702 2.147,3.077 2.899,2.27 0.992,-1.066 2.054,-0.831 3.121,0.023 1.3,1.041 2.899,1.229 4.353,1.956 0.818,0.412 0.959,-1.279 2.083,-0.045 0.903,0.992 2.658,0.968 3.896,1.092 1.721,0.173 3.483,-1.017 5.21,-1.187 1.476,-0.146 2.286,-0.34 3.698,0.166 1.979,0.709 3.448,1.193 5.485,0.239 2.444,-1.145 4.681,-2.45 6.769,-4.131 0.836,-0.673 1.612,0.466 2.457,0.484 0.517,0.012 0.475,-0.697 1.08,-0.576 0.393,0.078 0.783,0.167 1.175,0.247 0.568,0.117 2.186,0.755 2.532,-0.011 0.424,-0.938 2.466,-1.72 1.833,-0.308 0.645,-0.121 1.204,0.292 1.663,0.676 0.33,0.3 0.675,0.583 1.034,0.847 0.579,0.072 0.712,0.34 0.396,0.806 0.267,0.806 1.358,0.021 1.802,0.68 0.289,0.429 0.4757,1.70127 0.903,2.04664 1.3631,1.10163 2.477,2.20136 1.696,3.32636 -0.771,1.111 1.309,2.761 0.215,3.498 1.754,0.885 2.651,0.683 4.487,0.751 1.569,0.058 3.771,2.142 4.362,3.497 -0.854,-0.704 -2.155,-1.725 -2.515,0 -0.111,0.532 0.027,1.091 -0.136,1.621 -0.212,0.686 -2.028,0.323 -2.6,0.539 0.421,0.498 1.264,1.782 1.427,2.407 0.271,1.043 0.732,1.586 1.102,2.552 0.543,1.421 0.048,3.498 1.862,4.113 -0.615,0.581 -0.975,1.746 -1.168,2.542 -0.388,1.598 1.267,1.364 2.107,2.138 0.846,0.777 0.677,1.802 0.945,2.818 0.135,0.508 1.034,0.733 1.386,1.046 0.39,0.346 0.046,1.167 0.26,1.607 -1.677,-1.183 -2.37,1.757 -3.332,1.439 -1.245,-0.412 -0.226,-2.052 -1.139,-2.663 -0.456,-0.305 -1.213,-0.277 -1.626,0.096 -0.745,0.672 -1.84,0.515 -2.719,0.239 -1.433,-0.45 -2.537,-0.923 -4.052,-0.901 -1.075,0.016 -1.748,-0.283 -2.311,0.662 -0.681,1.144 -2.042,2.172 -2.508,0.466 -0.405,-1.487 -2.282,0.302 -3.104,0.568 -2.111,0.684 -3.881,0.664 -6.024,0.381 -3.849,-0.508 -7.174,3.366 -11.07,3.637 -1.555,0.108 -4.362,0.492 -5.668,-0.496 -1.425,-1.078 -2.317,-1.697 -4.076,-0.843 -1.879,0.912 -5.967,3.063 -7.584,1.059 -0.811,-1.005 -2.534,-1.354 -2.781,0.228 -0.243,1.556 0.3,2.645 0.964,3.977 -0.706,0.04 -1.455,0.241 -2.16,0.071 -0.115,0.616 0.297,1.267 0.08,1.872 -0.256,0.718 -1.209,0.869 -1.439,1.656 -0.541,-0.363 -1.086,-0.773 -1.73,-0.936 0.619,-0.807 -0.234,-1.856 -0.722,-2.46 -0.909,-1.126 0.075,-1.789 1.013,-2.604 0.964,-0.837 1.589,-1.427 0.65,-2.694 -0.375,-0.506 -1.161,-1.131 -1.696,-0.438 -0.741,0.958 -1.49,0.807 -2.415,1.5 1.533,-0.156 -0.04,1.387 -1.177,1.179 -1.411,-0.258 -2.667,-1.088 -3.93,-1.721 -3.007,-1.507 -4.569,2.915 -5.983,4.718 -0.215,-0.241 -0.432,-0.481 -0.65,-0.72 -0.542,0.569 -0.899,1.581 -1.779,1.248 -0.764,-0.289 -2.924,0.242 -3.644,0.602 -1.308,0.654 -2.841,0.556 -4.117,-0.007 -1.958,-0.865 -2.661,-3.036 -4.525,-3.948 -2.048,-1.002 -4.117,-2.147 -6.373,-2.548 -1.187,-0.21 -3.611,-0.69 -3.611,1.197 0,1.083 0.201,3.052 -0.591,3.917 -0.432,0.471 -1.005,-0.402 -1.413,-0.458 -1.044,-0.143 -2.121,1.093 -3.153,1.266 -1.19,0.2 -3.001,-0.568 -3.982,-1.197 -0.746,-0.478 -0.78,-2.041 -1.801,-2.089 0.794,-1.12 -1.056,-2.336 -1.29,-0.863 -0.773,-0.674 -2.722,-0.927 -2.96,-2.089 -0.182,0.84 -2.209,2.224 -2.88,2.736 0.237,-0.503 0.07,-0.814 -0.5,-0.936 0.567,-0.122 0.928,-0.574 0.931,-1.152 -0.732,0.613 -4.167,1.347 -5.11,1.08 0.749,-0.916 2.146,-0.971 3.225,-0.943 1.091,0.028 0.976,0.317 1.421,-0.527 0.311,-0.587 0.983,-0.853 1.404,-1.338 -1.328,-0.593 -5.89,-0.67 -6.98,0.432 -1.646,-1.933 1.484,-0.912 1.719,-1.411 0.195,-0.415 0.17,-0.995 -0.064,-1.389 -0.551,-0.923 -1.163,0.358 -0.863,-1.088 -1.587,2.029 -1.471,-2.153 -2.95,-2.088 1.026,-0.557 2.195,-1.094 1.316,-2.486 -0.634,-1.004 -2.442,-0.484 -2.878,-1.23 -0.451,-0.772 -0.909,-1.853 -1.585,-0.502 -0.3,0.599 -2.434,-1.012 -2.474,-1.542 2.146,0.514 0.289,-1.759 0.367,-2.645 0.063,-0.733 1.219,-0.198 1.438,0.162 0.455,0.746 0.301,1.969 1.005,2.555 -0.155,-1.596 2.33,0.401 3.021,-1.224 -1.432,-0.177 -2.015,-0.872 -2.88,-1.944 0.748,-0.414 1.134,-1.321 2.02,-1.512 -0.393,-1.168 -1.603,0.044 -1.491,-1.278 0.111,-1.314 -0.584,-1.483 -1.539,-2.322 0.637,-0.733 1.371,-1.377 1.95,-2.16 -2.052,-1.045 -3.989,1.11 -6.052,0.435"
       id="path3458" />
  </g>
  <g
     transform="translate(-29.9017,-45.0745)"
     id="Venezuela"
     style="fill:#b9b9b9;stroke:#ffffff;stroke-width:0.30000001">
    <path
       d="m 742.105,725.256 c 1.97,-2.324 2.956,-4.818 3.577,-7.748 0.596,-2.809 1.24991,-4.98954 2.71391,-7.44554 1.193,-2 3.89745,-3.16018 5.04145,-5.25818 1.304,-2.39 3.52837,-1.77264 5.65937,-3.08764 -0.868,2.118 -3.14237,1.29045 -4.39637,2.80045 -1.068,1.286 0.0716,4.06391 1.44364,4.61091 -1.241,-0.062 -0.044,2.691 0.076,3.211 0.368,1.599 -1.169,3.218 -2.234,4.226 -1.387,1.312 -2.063,2.907 -1.204,4.629 0.333,0.666 0.444,1.508 1.083,1.981 0.708,0.524 0.822,0.293 0.701,1.245 -0.255,2.001 1.28,2.452 2.888,1.538 1.66,-0.944 2.317,-2.34 2.531,-4.183 0.275,-2.364 -0.787,-3.687 -1.974,-5.616 -0.472,-0.766 -0.887,-1.628 -1.167,-2.485 -0.252,-0.772 0.405,-1.826 -0.196,-2.457 0.902,0.106 1.684,-1.258 2.376,-1.656 1.266,-0.729 2.451,-1.686 3.926,-1.945 1.276,-0.225 2.296,-0.399 3.416,-1.074 0.422,-0.254 1.678,-1.269 2.231,-1.012 -0.074,-0.402 -0.264,-0.738 -0.57,-1.009 0.55,0.224 2.228,1.628 2.8,0.965 0.388,-0.45 -0.014,-1.556 -0.514,-1.764 -0.855,-0.355 -2.001,0.453 -2.866,0.511 0.169,-0.992 -0.665,-6.251 2.275,-5.042 1.338,0.55 1.063,3.454 1.27,4.591 0.459,2.523 3.171,0.848 4.967,1.474 2.01,0.701 4.515,1.243 5.394,3.577 0.538,1.429 -0.86,4.635 1.52,5.14 2.831,0.601 6.416,-0.71 9.221,-1.083 2.405,-0.32 4.906,-0.833 6.379,1.316 0.61,0.89 1.464,1.617 2.484,1.976 0.831,0.293 1.693,0.487 2.543,0.712 -0.09,-0.024 2.79,0.588 1.456,0.588 2.264,1.227 3.341,-1.427 5.131,-1.593 1.088,-0.101 1.337,-1.234 2.24,-1.656 1.245,-0.58 2.665,0.528 3.938,-0.206 -1.096,-1.157 -3.672,0.082 -4.4,-1.368 0.629,0 1.259,0 1.889,0 0.886,0 1.146,-0.546 1.791,-0.576 0.318,0.11 0.626,0.242 0.925,0.397 0.882,0.16 1.798,0.051 2.672,-0.097 3.734,-0.63 7.559,0.074 11.233,-0.661 -0.574,1.164 -2.413,0.945 -3.47,1.501 -1.658,0.873 -3.611,-0.513 -5.17,0.803 0.502,-0.501 1.023,-0.434 1.22,0.287 -0.616,-0.051 -1.059,0.336 -1.15,0.937 1.365,-0.805 2.412,0.013 2.382,1.614 -0.024,1.268 -2.15,0.419 -2.812,0.402 0.477,1.779 3.405,0.527 3.1,-1.08 0.789,0.112 1.125,1.017 1.189,1.698 0.085,0.906 0.925,1.926 0.821,2.766 0.561,-0.598 0.843,-1.427 0.58,-2.231 0.724,0.708 0.833,2.076 0.21,2.88 0.765,-0.546 0.449,-1.617 0.36,-2.376 0.392,0.092 0.775,0.212 1.15,0.36 -0.074,-0.081 -2.451,-1.349 -1.052,-1.173 1.328,0.167 3.058,1.561 2.352,3.045 0.316,-0.574 0.77,-0.523 0.43,-1.08 0.535,-0.267 1.088,-0.314 1.66,-0.145 -1.219,-1.352 0.754,-0.133 1.199,0.587 0.817,1.322 2.258,0.78 3.316,1.601 2.825,2.191 -0.49,2.201 -1.205,4.221 0.228,-0.252 0.468,-0.492 0.72,-0.72 0.199,1.035 -0.924,2.83 -1.413,3.691 -0.302,0.532 -0.215,0.988 -0.902,0.988 -0.608,0 -2.469,-0.544 -2.865,0 0.883,0.5 2.309,0.648 2.81,1.656 0.571,-0.744 1.376,-1.272 1.51,-0.072 0.827,-0.91 1.447,-1.34 2.66,-1.584 1.133,-0.228 1.573,0.978 2.628,-0.039 1.823,-1.758 5.105,2.606 4.079,3.124 -1.021,0.516 -1.608,1.261 -2.439,2.052 -0.777,0.741 -2.123,1.097 -2.738,1.748 -0.441,0.467 -0.8,1.11 -1.197,1.622 -0.804,1.038 0.368,1.693 0.281,2.82 -0.055,0.701 0.207,1.48 1.02,1.035 0.972,-0.531 1.652,0.748 0.917,1.456 -0.809,0.779 -2.012,1.054 -2.795,1.836 -0.375,0.375 -1.027,-0.169 -1.413,-0.207 -0.344,-0.034 -0.54,0.638 -0.873,0.768 -3.03,1.184 0.051,3.062 -1.553,4.839 -0.408,0.452 -2.035,1.475 -1.458,2.264 0.981,1.341 1.988,2.698 3.043,3.98 1.251,1.521 3.802,3.929 1.411,5.673 -0.808,0.589 -1.3796,1.68139 -2.1916,2.26639 -0.45,0.325 -2.0024,-0.0504 -2.1024,0.11461 -0.438,0.719 -1.747,0.557 -1.771,1.303 -0.028,0.886 -1.594,0.896 -2.21,1.191 -1.177,0.564 -2.624,1.304 -3.926,0.653 -0.883,-0.441 -1.698,0.664 -2.617,0.844 -1.119,0.221 -1.138,1.395 -0.876,2.313 0.378,1.326 -0.729,2.347 -1.842,1.338 -0.753,-0.684 -1.125,-1.594 -1.815,-2.317 -0.916,-0.961 -1.504,0.332 -2.401,0.006 -1.232,-0.449 -1.692,-0.085 -2.933,-0.218 -0.966,-0.104 -0.75,0.271 -1.126,-0.917 -0.355,-1.122 -1.801,-1.219 -2.764,-1.027 -1.275,0.254 -1.238,-0.862 -2.23,-1.296 -0.829,0.833 0.703,2.71 1.208,3.326 1.453,1.772 2.652,2.09 2.694,4.616 0.014,0.82 0.041,1.633 0.254,2.431 0.27,1.008 1.33,2.045 1.188,3.106 -0.241,1.803 -0.247,2.596 1.945,2.651 0.635,0.016 2.98964,-0.47409 2.78701,0.6758 -0.375,2.128 -1.46937,1.9583 -2.5078,2.68679 -0.78221,0.54874 -2.16182,0.6722 -2.47682,1.4072 -0.357,0.834 -0.27539,1.43921 -0.84939,2.24721 -0.512,0.72 -1.191,1.289 -1.652,2.052 0.0248,-1.94188 -2.98037,1.03991 -3.542,1.15 -1.35109,0.26483 -2.221,1.04 -3.03,2.165 -0.542,0.754 -1.672,2.722 -2.578,3.018 -0.596,-0.721 0.172,-1.627 -0.02,-2.41 -0.324,-1.324 -2.269,-0.039 -2.781,0.33 -2.932,2.11 -5.16658,-0.18858 -7.07958,-2.70158 -0.894,-1.174 -0.80442,-2.54442 -1.21642,-3.91942 -0.472,-1.579 -1.627,-3.774 -1.555,-5.427 0.056,-1.301 -3.41381,-5.55373 -4.98181,-4.37473 -0.05,-1.46 2.30481,-3.01427 3.31981,-3.81327 1.771,-1.395 0.59,-2.879 -0.659,-4.308 -2.759,-3.153 -1.96054,-8.5291 -1.95154,-12.3151 0.003,-1.354 0.43855,-2.00159 1.26218,-2.92036 0.52622,-0.587 0.27271,-1.7946 0.69236,-2.56154 0.45698,-0.83516 1.19054,-1.43068 1.421,-2.165 0.41203,-1.31289 -1.38863,-2.6262 -2.12872,-2.28654 -1.77781,0.81591 -3.21917,1.00032 -4.76338,0.896 -0.70406,-0.0476 -2.21452,0.70276 -3.82663,0.26635 -1.1409,-0.30885 -1.07481,0.13796 -2.51591,0.3401 -0.26124,0.0367 -2.35045,-0.62981 -2.15145,-0.50181 -0.796,-0.509 -1.16191,-1.6391 -1.66391,-2.4041 -0.709,-1.082 -1.38,-2.148 -2.028,-3.265 -0.332,-0.573 -0.798,-1.27019 -1.619,-1.02219 -1.531,0.463 -2.50809,-1.01754 -3.95409,-1.16854 -0.931,-0.098 -1.34091,0.65573 -2.18991,0.87173 -1.253,0.32 -2.429,-0.555 -3.682,-0.325 -0.803,0.146 -1.28,-0.372 -2.118,0.051 -0.826,0.417 -1.929,-0.079 -2.393,-0.835 -0.358,-0.583 -0.53827,-1.00819 -0.69927,-1.65319 -0.223,-0.895 -1.47273,-0.80281 -1.92073,-1.44281 -0.86,-1.229 -0.18563,-3.837 0.54937,-4.85 1.394,-1.921 -0.99037,-3.809 -1.61637,-5.201 -0.66,-1.467 0.059,-4.874 -2.088,-4.319 0.039,-0.52 -0.033,-1.024 -0.216,-1.513 -0.841,0.735 -1.727,1.182 -2.874,1.149"
       id="path3410"
       style="fill:#b9b9b9;stroke:#ffffff;stroke-width:0.5" />
    <path
       d="m 834.118,731.304 c -0.731,-0.146 -1.479,-0.252 -2.16,-0.576 0.655,-0.374 2.12,-0.531 2.16,0.576"
       id="path3412" />
    <path
       d="m 834.837,729.432 c 0.434,-0.656 1.124,-1.483 2.021,-1.08 -0.297,0.971 -1.258,0.798 -2.021,1.08"
       id="path3414" />
    <path
       d="m 835.058,731.088 c -0.193,-0.216 -0.387,-0.432 -0.58,-0.647 0.52,-0.028 1.026,-0.124 1.52,-0.288 -0.035,0.564 -0.376,0.903 -0.94,0.935"
       id="path3416" />
    <path
       d="m 835.708,729.864 c -0.24,-0.096 -0.48,-0.192 -0.72,-0.288 0.457,-0.284 0.937,-0.332 1.44,-0.145 -0.24,0.145 -0.48,0.289 -0.72,0.433"
       id="path3418" />
    <path
       d="m 836.638,730.08 c -0.12,-0.519 0.147,-0.615 0.8,-0.288 -0.267,0.096 -0.534,0.192 -0.8,0.288"
       id="path3420" />
    <path
       d="m 836.858,727.704 c -0.24,0 -0.48,0 -0.72,0 0.195,-0.532 0.637,-0.87 1.22,-0.721 -0.167,0.241 -0.334,0.481 -0.5,0.721"
       id="path3422" />
    <path
       d="m 837.217,725.832 c -0.741,-0.233 -0.667,-0.473 0.221,-0.72 -0.074,0.241 -0.147,0.48 -0.221,0.72"
       id="path3424" />
    <path
       d="m 837.358,726.192 c -0.722,0.342 -1.247,0.962 -1.87,1.439 0.257,-0.813 1.023,-1.387 1.87,-1.439"
       id="path3426" />
    <path
       d="m 837.507,725.76 c 0.12,-0.331 0.359,-0.523 0.72,-0.576 -0.24,0.192 -0.479,0.383 -0.72,0.576"
       id="path3428" />
    <path
       d="m 804.528,710.496 c -0.24,-0.072 -0.48,-0.144 -0.72,-0.216 0.204,-0.237 0.444,-0.429 0.72,-0.576 0.323,0.315 0.323,0.578 0,0.792"
       id="path3598" />
    <path
       d="m 813.818,710.712 c -0.186,-0.54 -3.585,-1.289 -1.821,-1.85 0.937,-0.298 0.982,0.701 1.531,0.626 0.911,-0.124 1.064,-1.201 1.87,-1.513 0.489,1.93 0.269,1.733 -1.58,2.737"
       id="path3600" />
    <path
       d="m 823.388,713.952 c 0.388,0.458 0.701,0.962 0.94,1.512 -0.461,-0.327 -0.933,-0.914 -0.94,-1.512"
       id="path3602" />
  </g>
  <path
     d="m 667.27529,745.84555 c -0.264,-0.072 -0.528,-0.144 -0.792,-0.216 0.281,-1.72 2.127,-2.263 3.528,-1.44 0.759,-1.468 -1.129,-2.852 -0.381,-4.349 0.958,-1.921 3.111,-1.823 4.917,-2.13 0.343,-0.058 0.223,-0.889 0.69,-0.608 0.343,0.206 1.122,0.387 1.127,-0.218 0.01,-1.207 1.589,-2.708 0.631,-3.494 1.717,-0.046 2.034,-2.256 2.54,-3.428 0.4,-0.926 1.181,-1.567 1.996,-2.116 -1.014,-0.828 0.189,-0.953 0.504,-1.8 -0.707,0.028 -1.61,0.611 -1.872,-0.432 0.554,-0.144 0.96,-0.551 0.936,-1.152 -0.545,-0.191 -1.651,1.267 -1.764,0.144 -0.118,-1.178 0.554,-1.412 1.476,-1.873 -1.447,0.014 -0.786,-1.912 -0.588,-2.704 0.387,-1.555 0.047,-3.639 -0.103,-5.223 -0.114,-1.199 -0.646,-2.343 -0.729,-3.538 -0.045,-0.654 2.047,-0.911 1.692,-2.438 -0.212,-0.914 -2.315,-3.013 -0.919,-3.542 1.255,-0.475 0.178,-3.138 -0.367,-3.746 -1.099,-1.227 -1.234,-3.062 -2.421,-4.096 -0.781,-0.68 -0.001,-1.537 0.453,-2.159 0.548,-0.749 0.021,-1.726 0.677,-2.362 0.361,0.427 0.625,0.907 0.792,1.44 1.536,-1.075 3.721,-3.175 3.011,-5.261 -0.728,-2.137 -2.086,-2.59 -0.779,-4.604 0.743,0.961 1.551,2.273 2.192,3.341 0.661,1.102 2.284,1.438 0.832,2.779 1.95,2.238 0.993,-4.18 0.717,-4.867 -0.396,-0.99 4.167,-3.272 4.75,-4.072 0.733,-1.007 1.257,-2.697 2.482,-3.228 0.694,-0.3 2.338,-0.129 2.728,-0.908 0.555,-1.107 -0.52,-1.507 -0.294,-2.189 0.401,-1.213 0.568,-2.737 1.281,-3.815 -1.059,-0.108 -0.772,-0.459 -0.053,-0.827 0.657,-0.336 0.403,-1.24 0.385,-1.804 -0.042,-1.324 2.188,-1.695 2.188,-2.158 0,-0.693 2.716,-3.371 3.349,-3.354 1.254,0.032 2.313,1.145 3.563,1.159 -1.056,-0.14 -0.906,1.005 -1.872,1.008 0.734,2.721 2.34,-0.9 2.708,-1.881 0.917,-2.449 1.999,-2.273 4.578,-1.843 3.519,0.587 4.639,-1.701 7.414,-3.364 1.526,-0.915 5.965,-2.004 4.596,-4.647 0.583,-0.174 2.232,-0.7 1.296,0.504 1.08,-0.165 0.4,-1.238 1.584,-1.776 1.426,-0.647 2.679,-0.648 3.897,0.37 4.155,3.473 -4.79,4.88 -6.13,6.59 -0.716,0.913 -0.987,2.246 -1.835,3.039 -0.589,0.551 -1.547,0.445 -2.072,1.042 -0.989,1.124 -2.026,2.84 -2.662,4.188 -0.949,2.009 -0.989,4.071 -1.527,6.188 -0.53,2.079 -2.041,4.578 -3.423,6.208 1.147,0.033 2.033,-0.414 2.88,-1.152 0.183,0.488 0.255,0.993 0.216,1.513 2.18,-0.563 1.449,3.304 2.555,4.71 1.579,2.008 2.013,3.188 1.089,5.655 -0.464,1.24 -1.209,3.893 0.468,4.522 1.903,0.713 0.895,2.979 2.853,3.441 0.792,0.187 1.55,-0.317 2.324,-0.4 1.263,-0.136 2.414,0.711 3.682,0.595 1.129,-0.103 2.075,-0.905 3.227,-0.883 1.024,0.02 1.786,1.009 2.754,1.237 0.711,0.167 1.374,-0.43 2.023,0.139 0.854,0.748 1.432,2.116 2.062,3.043 0.584,0.86 1.12,1.733 1.646,2.627 0.68,1.154 0.961,0.831 1.988,1.128 1.495,0.433 2.87,-0.82227 4.819,-0.0403 0.596,0.239 1.909,-0.34373 2.553,-0.35773 1.411,-0.032 2.611,0.08 3.849,-0.671 1.402,-0.85 3.718,0.822 2.982,2.297 -0.421,0.843 -1.446,1.49 -1.63,2.433 -0.227,1.161 0.241,1.77 -0.862,2.521 -1.469,1.001 -0.887,5.025 -1.032,6.657 -0.173,1.939 0.63,4.001 0.994,6.048 0.274,1.542 3.23,3.579 2.751,5.152 -0.59,1.935 -4.237,2.69 -4.157,5.01 1.322,-0.993 4.552,2.641 4.97,3.744 -0.092,0.299 -0.0682,0.601 -0.13221,0.907 0.171,0.561 0.60421,1.116 0.60521,1.717 0.002,1.249 0.728,2.569 1.037,3.806 0.122,0.4895 0.77033,2.38413 0.90395,3.14226 0.13363,0.75812 -0.27133,0.26831 -0.87395,0.45574 -1.00656,0.31307 -1.31643,-0.16308 -1.06898,-0.75307 0.40555,-0.96699 -0.1721,-7.29704 -2.69202,-7.20093 -0.98488,0.0376 -3.657,5.13 -4.407,2.322 -0.28,-1.045 -1.624,-1.521 -1.476,-0.004 0.167,1.705 -1.999,1.081 -3.159,1.081 -1.738,0 -3.477,0 -5.215,0 -1.15,0 -2.392,-0.677 -3.523,-0.178 -1.69,0.744 -0.345,4.538 -0.518,5.938 1.369,-0.925 4.58,-0.123 5.196,1.388 0.228,0.559 0.357,2.441 -0.709,2.344 -0.659,-0.06 -1.058,-0.936 -1.768,-0.809 -1.567,0.28 -4.307,0.711 -4.422,2.54 -0.14,2.228 -0.336,5.346 1.588,6.803 0.971,0.735 2.104,1.37 2.054,2.76 -0.048,1.334 0.631,1.845 1.152,2.971 1.183,2.555 -0.349,6.05 -0.71,8.663 -0.868,6.291 -0.727,13.134 -2.67,19.207 -0.467,-1.157 -1.384,-1.99319 -2.211,-2.91019 -0.942,-1.044 -2.13427,-0.002 -3.22427,-0.622 -1.011,-0.575 1.53573,-4.83208 1.88773,-5.43208 0.687,-1.168 2.74718,-3.46273 1.70018,-4.58373 -0.453,-0.484 -0.91566,-1.75969 -1.64764,-1.503 -1.3027,0.45682 -2.783,-1.62263 -3.11,-1.893 -1.25,-1.03353 -2.307,0.006 -3.62672,0.64954 -1.25772,0.61348 -2.08974,-1.03977 -3.24491,-1.23354 -0.70468,-0.1182 -2.70433,2.98394 -5.04917,2.27327 -0.82089,-0.24879 -1.3832,-0.24227 -2.4022,-0.11027 -1.406,0.184 -2.14827,0.0395 -3.25427,-0.81946 -0.863,-0.671 0.0443,-2.45554 -0.26573,-3.47554 -0.423,-1.392 -2.629,-0.637 -2.876,-2.034 -0.176,-0.995 -0.67209,-2.12973 -1.07209,-3.05773 -0.42,-0.975 -1.68718,-0.55718 -2.28818,-1.41618 -0.651,-0.931 -1.06873,-1.19409 -1.93973,-1.48709 -1.108,-0.372 -1.75909,-1.86819 -1.84309,-2.86819 -0.159,-1.906 -3.64691,-4.95681 -5.42191,-5.47681 -0.342,-0.101 -0.7,-0.49719 -1.003,-0.0152 -0.328,0.521 -0.32,0.52819 -1.019,0.21019 -1.041,-0.474 -2.642,-1.035 -3.519,-1.721 -0.681,-0.533 -3.83691,-4.51446 -4.21091,-1.67946 -0.194,1.473 -5.74809,-0.40454 -6.90109,-0.61054 -1.87,-0.334 -0.494,-1.916 -1.872,-2.505 -1.209,-0.517 -0.674,-1.547 -2.231,-1.566 -1.224,-0.014 -3.64281,-1.37191 -4.54781,-2.11991 -1.523,-1.256 -2.75819,-2.79809 -3.93019,-4.39909"
     id="Colombia"
     style="fill:#b9b9b9;stroke:#ffffff;stroke-width:0.5" />
  <g
     transform="translate(-29.9017,-45.0745)"
     id="Thailand"
     style="fill:#b9b9b9;stroke:#ffffff;stroke-width:0.30000001">
    <path
       d="m 2049.559,733.824 c -0.371,1.208 -0.162,2.515 0.279,3.672 1.072,-0.862 0.953,-2.997 -0.279,-3.672"
       id="path3902" />
    <path
       d="m 2051.348,734.472 c 0.217,0.503 0.477,0.99 0.65,1.512 0.041,-0.615 -0.176,-1.119 -0.65,-1.512"
       id="path3904" />
    <path
       d="m 2055.958,740.088 c -0.083,-0.578 -0.323,-1.082 -0.72,-1.512 0.062,0.589 0.302,1.093 0.72,1.512"
       id="path3906" />
    <path
       d="m 2060.568,746.64 c -0.509,0.51 -0.562,1.265 0.29,1.44 -0.091,-0.481 -0.188,-0.961 -0.29,-1.44"
       id="path3908" />
    <path
       d="m 2061.798,721.8 c -0.497,0.453 -0.474,0.885 0.07,1.296 0.484,-0.448 0.46,-0.88 -0.07,-1.296"
       id="path3910" />
    <path
       d="m 2061.648,719.928 c -0.222,0.513 0.195,0.726 0.649,0.72 -0.195,-0.259 -0.412,-0.499 -0.649,-0.72"
       id="path3912" />
    <path
       d="m 2077.639,700.776 c 0.236,0.023 0.473,0.048 0.709,0.071 0.01,-0.583 -0.354,-1.047 -0.859,-1.296 0,0.415 0.055,0.823 0.15,1.225"
       id="path3914" />
    <path
       d="m 2079.868,702.936 c -0.229,0.561 -0.108,1.041 0.36,1.44 0.142,-0.545 0.022,-1.025 -0.36,-1.44"
       id="path3916" />
    <path
       d="m 2034.288,643.824 c 0.445,0.857 2.298,0.823 2.909,0.195 0.737,-0.756 -0.72,-2.807 -0.529,-3.796 0.106,-0.551 0.544,-0.931 0.57,-1.512 0.041,-0.9 -0.688,-1.483 -0.444,-2.442 0.154,-0.611 1.266,-2.68 1.682,-2.604 1.22,0.226 2.414,0.754 3.667,0.48 0.595,-0.129 1.165,-0.808 1.756,-0.795 0.601,0.013 0.837,0.599 1.345,-0.178 0.499,-0.765 -0.431,-2.221 0.747,-2.524 0.846,-0.217 4.067,0.439 2.338,-1.801 1.234,-0.062 4.552,-2.249 4.54,0.433 0.677,-0.188 0.892,-1.157 1.684,-0.92 0.353,0.105 1.548,1.696 1.832,2.021 0.696,0.792 -0.282,1.98 -0.487,2.773 -0.288,1.118 0.3924,1.84761 1.2014,2.51061 0.2838,0.2315 1.139,-0.002 1.4459,0.13889 0.696,0.32044 0.4698,-0.47286 0.907,-0.59401 0.3759,-0.10419 0.2945,-0.016 0.6506,-0.12207 0.3561,-0.10609 0.8687,-0.19697 1.203,-0.15006 1.5356,0.21549 1.2955,2.70131 2.2251,5.00464 0.2994,0.74175 -0.4979,1.63661 -0.269,2.419 0.4531,1.54892 -0.3397,1.28997 -0.7114,2.31536 -0.1543,0.42549 0.4994,1.33735 0.5864,1.92235 0.145,0.974 0.3958,1.51658 0.075,2.45529 -0.8265,2.41837 -1.2539,4.36731 0.957,4.25002 0.1074,-0.006 3.4409,-3.06072 3.96,-4.94502 1.221,0.731 1.315,-1.256 2.25,-1.274 0.646,-0.012 1.515,1.247 2.104,1.54 0.461,0.23 1.526,0.311 1.808,0.784 0.893,1.494 1.934,-0.698 3.059,-0.474 0.608,0.121 0.826,-2.312 1.801,-2.448 -1.685,-1.856 3.4641,-0.82825 4.0221,-0.67325 3.138,0.872 4.25,5.244 7.157,6.768 2.402,1.26 0.977,5.94366 1.6899,8.09225 0.4594,1.38447 0.7137,1.88686 1.6554,2.78336 1.6328,1.55438 2.5102,1.95687 4.2646,2.75764 -1.625,1.109 0.7699,1.90402 1.532,2.453 1.7778,1.28065 -1.7169,3.79031 0.338,3.307 -0.313,0.713 -1.03,1.405 -0.536,2.214 0.28,0.458 0.845,0.663 0.785,1.287 -0.165,1.717 0.509,3.413 -1.204,4.477 -1.144,0.71 -1.763,2.196 -2.649,0.597 -0.914,-1.646 -3.513,-0.017 -4.862,-0.422 -0.936,-0.28 -1.834,0.058 -2.756,0.187 -0.989,0.138 -1.447,-0.471 -2.318,-0.542 -1.201,-0.099 -2.5313,0.449 -3.6333,0.882 -1.74,0.684 -2.1347,2.60192 -2.6689,4.16053 -0.2334,0.68112 -0.9834,1.36892 -1.6358,1.97047 -0.4449,0.41022 -1.1473,0.44245 -1.563,0.526 0.598,1.4318 -0.06,2.45591 1.33,4.544 0.7341,1.10277 0.9292,2.45032 1.877,3.56975 0.9209,1.0877 1.2462,2.10712 1.184,3.53066 -0.099,2.26674 1.6188,3.24053 1.439,4.98859 -0.018,-0.881 -0.752,-1.361 -1.14,-2.065 -0.585,-1.063 -0.507,-2.399 -1.95,-2.832 0.033,0.432 0.057,0.863 0.07,1.296 -0.398,-0.955 -3.621,-1.404 -1.73,-2.664 -0.521,0.311 -0.886,-0.021 -1.08,-0.504 0,1.551 -1.835,-0.848 -2.159,-1.584 0,1.364 -1.03,-1.4 -2.314,-0.813 -0.626,0.286 -1.259,0.817 -2.006,0.668 -0.915,-0.183 -1.972,-0.686 -2.919,-0.452 -1.852,0.458 -0.813,-1.462 -0.937,-2.603 -0.072,-0.668 -0.094,-1.345 -0.187,-2.011 -0.127,-0.921 0.55,-1.639 0.372,-2.494 -0.784,0.628 -2.879,0.048 -3.17,-0.936 0.341,1.974 -5.648,0.23 -3.935,3.297 0.854,1.529 0.311,2.501 0.01,4.099 -0.322,1.696 0.939,3.281 0.619,4.988 -0.127,0.677 -0.63,1.188 -0.969,1.758 -0.417,0.698 -0.153,1.543 -0.632,2.231 -0.901,1.298 -1.042,3.293 -1.371,4.807 -0.401,1.846 -0.671,3.178 -1.442,4.873 -0.275,0.605 0.305,2.268 -0.847,2.099 1.303,1.574 -0.079,4.487 0.745,6.39 0.393,0.905 0.975,1.508 0.521,2.428 -0.513,1.042 1.382,1.274 1.928,0.985 1.923,-1.018 3.105,-1.039 3.396,1.574 0.096,0.862 1.313,7.038 2.561,5.04 0.762,1.756 0.888,3.708 1.468,5.521 0.52,1.621 1.324,3.332 1.342,5.063 -1.195,-0.218 -1.43,-5.458 -2.722,-4.553 -0.929,0.651 0.456,2.702 0.82,3.226 0.435,0.623 0.948,1.103 1.501,1.61 0.461,0.423 1.136,0.262 1.586,0.684 1.043,0.98 1.244,2.003 2.967,2.053 1.266,0.036 2.678,-0.466 3.791,0.385 1.225,0.936 1.484,2.647 2.67,3.639 1.254,1.049 2.063,1.554 1.436,3.216 -0.288,0.762 -0.791,2.31 -1.739,2.511 -0.729,0.155 -0.873,-1.037 -1.43,-1.257 -1.46,-0.578 -2.271,1.999 -3.205,1.994 -1.803,-0.009 -1.4187,-1.76607 -0.7887,-2.75507 0.686,-1.074 -0.542,-2.057 -1.329,-2.251 -1.117,-0.275 -0.6073,-1.88293 -2.0363,-2.07493 -1.315,-0.176 -2.079,-0.231 -2.922,-1.333 -1.181,-1.545 -0.761,1.124 -1.27,1.819 -0.11,-2.04 -5.207,-3.954 -3.17,-6.12 -1.716,1.03 -1.028,-1.643 -1.87,-2.159 0.088,1.049 -0.797,0.826 -1.179,0.187 -0.492,-0.825 -0.382,-2.077 -1.096,-2.764 -0.473,-0.455 -1.418,0.138 -1.511,-0.609 -0.084,-0.679 0.056,-0.929 -0.345,-1.496 -0.604,-0.854 -0.532,-0.789 -1.428,-0.96 -0.561,-0.106 -0.455,-1.027 -0.632,-1.414 -0.286,-0.627 -0.611,-1.593 -1.511,-1.368 -0.96,0.24 -0.563,1.117 -0.869,1.801 -2.407,-0.496 -1.926,-4.098 -1.651,-5.836 0.554,-3.5 1.295,-7.056 2.036,-10.523 0.287,-1.346 1.396,-3.134 1.38,-4.458 -0.02,-1.556 0.586,-1.645 1.181,-3.031 0.749,-1.745 5.33,-6.426 3.78,-8.347 -0.663,-0.818 -1.216,-3.044 -1.454,-4.047 -0.362,-1.528 -0.925,-2.047 -1.68,-3.339 -0.435,-0.744 -1.413,-2.831 -1.267,-3.643 0.354,-1.962 0.27,-3.39 -0.53,-5.277 -1.303,-3.071 -4.336,-4.927 -6.303,-7.553 -0.861,-1.151 -1.702,-2.284 -1.886,-3.771 -0.104,-0.836 0.142,-2.758 1.353,-1.664 -0.261,-1.018 0.943,-0.8 1.19,-1.514 0.352,-1.013 -0.289,-3.383 -0.447,-4.471 -0.262,-1.798 1.146,-0.878 1.781,-1.885 0.407,-0.646 0.427,-2.043 -0.214,-2.571 -0.181,0.567 -0.471,1.071 -0.87,1.513 -1.214,-1.503 -1.563,-3.26 -2.08,-5.04 -0.328,-1.133 -2.003,-2.254 -2.794,-3.136 -1.219,-1.358 -2.827,-2.797 -3.854,-4.278 -0.568,-0.82 -0.304,-1.593 -0.574,-2.479 -0.245,-0.799 -1.093,-1.433 -0.917,-2.347 -1.491,0.437 -2.145,-1.528 -2.449,-2.594"
       id="path3918"
       style="fill:#b9b9b9;stroke:#ffffff;stroke-width:0.5" />
  </g>
  <path
     d="m 1555.7563,470.80555 c 4.3627,-2.13958 8.1949,-4.22799 12.0756,-6.89364 1.2336,-0.84738 2.5643,-1.896 3.2734,-2.97836 1.3617,-2.07847 0.2761,-4.82597 0.5479,-5.60373 0.029,-3.23124 0.9002,-3.63095 0.7147,-5.18355 -0.2072,-1.73556 -2.6769,-4.78235 -0.7706,-6.26772 1.0907,-0.84987 2.445,-0.81429 3.5708,-1.75379 0.9453,-0.78892 3.4878,-2.85435 2.7336,-3.68819 -0.3448,-0.38118 0.3464,0.0358 0.8634,-0.12122 0.854,-0.258 1.1325,-1.06093 1.5042,-1.7418 0.3649,-0.66827 4.1683,-0.0503 5.002,0.27 0.66,0.25358 1.326,0.493 2.021,0.636 1.143,0.236 1.485,-0.50364 2.479,-0.688 2.5066,-0.46491 0.7956,2.81961 2.217,2.691 1.0356,-0.0937 1.4466,-1.66179 2.5866,-1.61879 1.447,0.054 1.3956,2.51279 2.0306,3.36379 0.301,0.404 0.6938,0.333 0.9448,0.839 0.306,0.618 -0.1,1.49723 0.4204,2.00579 1.0966,1.07173 3.5073,2.12769 2.5228,3.97861 1.6272,-0.364 2.2955,1.09699 3.021,1.3716 1.3873,0.52516 1.408,-0.57519 4.399,0.216 -0.261,1.124 -1.5666,0.8634 -2.0356,1.7324 -0.794,1.468 1.4494,2.5596 1.5784,3.8936 0.169,1.761 -1.983,-0.175 -1.921,1.61 0.027,0.804 -0.843,0.6686 -1.065,1.4256 -0.251,0.856 0.171,1.4934 0.318,2.2824 -0.544,-0.003 -1.048,-0.147 -1.511,-0.433 -0.1219,0.72411 -0.6251,1.27493 -0.054,1.874 0.6226,0.65291 1.0899,0.93182 0.7462,2.0022 -0.3279,1.02104 -1.2424,1.2528 -0.3634,2.0478 0.753,0.68 1.4147,1.49339 2.261,2.062 0.8454,0.568 5.2494,4.342 2.74,5.047 0.9784,0.23864 0.7301,1.37743 1.537,1.1898 1.1596,-0.26966 1.8091,0.46819 2.7382,0.9928 1.7069,0.96379 2.7977,3.1535 5.1602,3.33759 1.1201,0.0873 3.1846,3.73645 4.1738,4.61061 1.4963,1.32228 0.5788,2.6882 0.2028,4.5072 -0.18,0.869 -0.1348,3.33621 1.1532,3.42821 0.452,0.033 1.208,-0.061 1.562,0.38998 0.457,0.579 0.4549,1.74629 0.3508,2.45381 -0.2314,1.57187 0.5889,2.03247 2.346,3.2986 0.886,0.63847 0.6857,2.61965 1.9414,2.92302 -0.649,0.049 -4.5184,-0.50262 -4.6044,-1.21062 0.533,1.258 -1.6798,0.24879 -2.5448,0.21079 -1.251,-0.054 -2.8686,0.24148 -3.4352,1.44521 -1.228,2.609 -1.0078,7.80671 -5.175,7.33 l -10.5174,-1.20317 c -3.5203,-0.50358 -3.6524,-2.35392 -6.8726,-4.37783 -8.9055,-6.55007 -17.4359,-14.3993 -27.4073,-18.76736 -3.583,-1.56959 -6.7649,-1.43608 -10.0025,-2.15019 2.0295,-2.19927 -0.4149,-1.23006 -1.0234,-2.16564 -0.1511,-0.23238 -0.2771,-0.69545 -0.1461,-0.92945 0.509,-0.584 0,-1.17818 -0.313,-2.03018 -0.707,-1.886 -1.3757,-3.74018 -1.9747,-5.66018"
     id="iq"
     style="fill:#b9b9b9;stroke:#ffffff;stroke-width:0.5" />
  <path
     d="m 1532.7863,471.66955 c 0.6271,-0.79445 1.8348,-2.4476 2.95,-2.664 -1.702,-1.588 0.73,-2.587 2.159,-2.16 -1.256,-1.526 0.6157,-1.7114 1.0482,-3.1698 0.2397,-0.80815 -0.7646,-2.44272 -1.6908,-2.6144 -1.0562,-0.19578 0.9549,-1.71141 -0.6818,-1.2524 -2.7274,0.76485 -2.9283,-0.97422 -3.0546,-2.3854 -0.1148,-1.28244 0.715,-3.625 -0.437,-4.569 -0.923,-0.757 -0.2058,-2.76938 -0.2408,-3.87638 -0.026,-0.831 1.5188,0.47498 1.8158,0.62198 0.024,0.10983 0.3782,-0.73788 1.0344,-1.1346 0.8098,-0.48954 0.2626,-1.591 0.4046,-2.356 0.705,0.17 1.454,-0.032 2.16,-0.071 -0.5638,-1.157 -0.9322,-1.457 -1.094,-2.849 -0.059,-0.50658 -0.013,-1.9376 0.697,-2.1146 0.534,-0.134 1.0704,-0.13896 1.4954,0.085 1.146,0.603 1.371,1.62675 2.552,1.44275 1.441,-0.225 2.3966,-0.39579 3.7716,-0.98979 1.41,-0.609 2.443,-1.455 4.026,-1.228 1.169,0.167 1.856,0.9976 2.845,1.4606 1.126,0.528 3.3308,0.30819 4.5508,0.20321 3.1137,-0.26794 5.3377,-2.04662 8.1572,-3.1742 2.8504,-1.13993 5.9644,0.45919 8.8894,-0.7084 1.4932,-0.59604 3.6851,-2.87763 3.9026,0.69039 0.051,0.831 -1.976,2.516 -2.56,3.094 -1.059,1.049 -2.24,0.975 -3.433,1.675 -2.56,1.503 0.122,4.757 0.323,6.553 0.119,1.062 -0.523,2.365 -0.6,3.463 -0.113,1.635 3e-4,4.27995 -0.01,5.89892 -0.02,3.78755 -15.9667,11.03216 -24.0599,16.57208 -2.2038,1.50854 -5.769,5.137 -8.635,3.131 -1.043,-0.729 -1.7942,-1.28947 -2.87,-2.029 -1.8663,-1.28302 -2.7051,-0.32261 -3.0146,-0.36721 -0.065,-0.235 0.6744,-4.70779 -0.4024,-5.17779"
     id="Syria"
     style="fill:#b9b9b9;stroke:#ffffff;stroke-width:0.5" />
  <g
     transform="translate(-29.9017,-45.0745)"
     id="Saudi_Arabia"
     style="fill:#b9b9b9;stroke:#ffffff;stroke-width:0.30000001">
    <path
       d="m 1619.718,661.32 c -0.041,-0.811 -0.376,-1.567 -1.079,-2.017 -0.016,0.265 -0.043,0.529 -0.08,0.792 -0.938,0.037 -1.275,-0.954 -2.08,-1.224 0.78,1.298 2.789,1.272 3.239,2.449"
       id="path3234" />
    <path
       d="m 1624.548,662.653 c 0.097,-0.908 -0.457,-3.06 -1.274,-3.58 -0.416,-0.265 -2.431,-4.499 -2.315,-2.456 -0.187,-3.659 -2.723,-4.6 -4.741,-7.077 -0.764,-0.938 -1.842,-2.292 -2.2,-3.439 -0.463,-1.48 -1.298,-1.902 -2.056,-3.105 -0.444,-0.706 -0.066,-1.322 -0.578,-2.047 -0.365,-0.515 -0.975,-2.154 -1.216,-2.815 -0.226,-0.619 -0.363,-1.273 -0.653,-1.868 -0.267,-0.547 -0.824,-0.624 -1.092,-1.105 -0.256,-0.462 -0.01,-1.092 -0.359,-1.497 -0.359,-0.409 -0.945,-0.466 -1.334,-0.828 -0.977,-0.909 -2.108,-1.828 -2.971,-2.841 -1.047,-1.23 -2.274,-0.715 -3.455,-1.585 -1.959,-1.446 -3.262,-4.131 -4.493,-6.187 -0.717,-1.197 -0.511,-1.882 -0.571,-3.145 -0.066,-1.368 -1.056,-2.5 -1.158,-3.883 -0.134,-1.815 0.617,-3.62 0.256,-5.428 -0.165,-0.824 -0.615,-1.521 -1.057,-2.216 -0.232,-0.366 -1.639,-2.181 -0.051,-0.94 -0.349,-0.912 -1.142,-0.922 -1.348,-1.921 -0.185,-0.893 -0.623,-1.87 -0.972,-2.713 -0.966,-2.335 -2.851,-3.926 -4.618,-5.606 -1.289,-1.224 -2.566,-1.417 -4.138,-1.847 -0.67,-0.183 -0.99,-1.458 -1.187,-2.002 -0.422,-1.166 -1.238,-1.966 -1.969,-2.938 2.53,-0.922 -0.994,-5.075 -1.82,-6.08 -0.557,-0.675 -2.12,-1.905 -2.053,-2.796 0.117,-1.535 -1.86,-2.422 -2.525,-3.803 -2.016,-4.19 -5.198,-7.671 -7.432,-11.782 -0.681,-1.252 -1.441,-3.183 -2.942,-3.606 -0.682,-0.192 -3.364,-0.638 -3.417,0.621 -0.897,-0.82 0.553,-2.975 0.805,-3.836 0.528,-1.805 0.106,-3.68271 0.401,-5.505 0.3737,-2.30852 0.014,-0.8716 0.3385,-2.24737 1.723,0.51257 6.4635,1.78516 8.1825,1.41037 3.415,-0.74456 3.361,-5.71 6.57,-6.216 1.203,-0.19 4.1559,0.11407 4.027,-1.508 -0.2941,-3.69942 1.3153,-2.58881 3.5546,-3.34406 -2.9226,-2.79949 -5.703,-5.71917 -8.3765,-8.754 5.1925,-1.08478 8.6393,-2.25469 14.76,-5.52458 2.5927,0.49723 7.217,0.77985 10.0595,2.09578 9.5514,4.4217 17.4184,11.18186 25.7094,17.49086 1.756,1.337 3.465,2.664 5.104,4.137 1.867,1.677 3.1647,1.59327 5.6247,1.83127 2.836,0.274 5.8243,0.67473 8.6613,0.93673 1.041,0.097 1.555,-0.434 2.685,-0.19 1.527,0.329 3.111,0.515 4.666,0.656 1.648,0.148 1.778,2.064 2.304,3.277 0.779,1.802 3.404,0.664 4.894,0.795 1.541,0.136 1.742,0.971 2.246,2.232 0.545,1.365 3.255,3.104 2.834,4.635 -0.139,-0.241 -0.309,-0.457 -0.511,-0.647 -0.461,1.097 0.645,0.972 0.511,1.94 0.019,0.015 4.632,0.442 2.87,1.797 0.676,0.214 2.111,3.675 2.8,1.725 -0.46,1.736 3.706,3.686 4.67,4.741 -0.514,-0.154 -0.897,-0.466 -1.15,-0.934 0.024,1.914 1.184,1.942 1.596,3.478 0.241,0.9 0.145,2.799 -1.165,1.624 0.119,1.021 -0.211,1.224 0.717,1.412 0.143,0.028 1.359,2.665 1.443,2.971 -0.27,-0.233 -0.533,-0.473 -0.791,-0.719 0.797,1.169 2.22,1.826 2.85,3.12 0.639,1.308 0.833,2.508 1.601,3.779 0.59,0.978 1.443,2.654 2.665,2.954 0.559,0.137 2.587,-0.393 2.295,0.71 0.214,-0.56 0.699,-0.765 1.221,-0.432 -0.683,0.834 -1.3002,3.10814 1.0068,2.51914 -0.152,0.039 1.1802,2.63645 1.3082,2.81945 2.6599,3.01823 6.2479,8.32765 7.6579,8.89996 8.7636,0.97901 12.8159,1.45516 17.5839,2.51679 0.6215,-0.14882 1.1661,-0.52221 1.3651,-0.92452 1.0641,2.45975 3.4811,3.74705 3.8873,5.344 0.367,1.44291 0.2647,2.40103 -0.1135,3.88483 -1.2662,4.96847 -1.9636,13.91667 -3.7987,14.9054 -12.4941,6.73153 -28.1308,9.08715 -42.979,11.54695 -1.926,0.682 -3.7786,1.55278 -5.5365,2.57009 -2.6434,1.52972 -5.2137,6.12495 -6.0713,8.86805 -0.3963,1.26766 -1.888,2.65572 -3.283,2.66172 -1.458,0.006 -1.7275,-2.3642 -2.9157,-2.76405 -1.3502,-0.45438 -2.3471,0.23562 -3.5112,0.0931 -1.8051,-0.22095 -4.2178,0.0627 -5.8403,-0.77213 -1.949,-1.00286 -3.3851,-0.54262 -5.5441,-0.53836 -1.891,0.004 -3.8878,1.16148 -5.7705,1.13754 -2.3377,-0.0297 -2.6794,-1.80886 -3.896,-1.489 -1.6305,0.42868 -2.063,2.56919 -2.1538,3.92227 -0.09,1.33517 1.5811,2.11151 0.166,3.076 -0.2714,0.18502 -0.5545,2.07645 -2.5891,2.74927 -0.013,-0.179 0.1045,-0.22754 0.094,-0.40254"
       id="path3380"
       style="fill:#b9b9b9;stroke:#ffffff;stroke-width:0.5" />
    <path
       d="m 1617.268,657.504 c 0.531,0.132 0.65,0.3 0.36,0.504 -0.12,-0.168 -0.24,-0.336 -0.36,-0.504"
       id="path5480" />
    <path
       d="m 1617.628,658.008 c 0.219,0.31 0.265,0.646 0.14,1.008 -0.264,-0.073 -0.503,-0.193 -0.72,-0.359 0.193,-0.217 0.387,-0.433 0.58,-0.649"
       id="path5482" />
    <path
       d="m 1668.889,568.368 c 0.355,-0.539 0.91,-0.395 1.3,0 -0.434,0.083 -0.867,0.083 -1.3,0"
       id="path5488" />
  </g>
  <path
     d="m 1588.6573,664.12555 c 0,-2.321 -0.9,-4.628 0.507,-6.726 1.059,-1.578 2.029,-3.01 2.947,-4.667 1.072,-1.935 1.612,-0.899 3.146,-0.487 0.778,0.208 0.736,-1.011 1.041,-1.414 0.473,-0.624 1.29,-0.871 1.939,-1.249 0.669,1.468 3.475,4.204 2.123,5.919 -0.693,0.88 -2.858,1.884 -3.893,2.292 -1.062,0.419 -1.199,1.675 -2.411,1.87 0.795,1.024 3.168,-0.663 4.32,-0.217 2.083,0.807 0.01,2.845 -0.549,3.99 -0.838,1.728 -2.17,-0.074 -3.471,0.268 -1.33,0.349 -4.812,2.088 -5.699,0.421"
     id="dj"
     style="fill:#b9b9b9;stroke:#ffffff;stroke-width:0.5" />
  <g
     transform="translate(-29.9017,-45.0745)"
     id="az"
     style="fill:#b9b9b9;stroke:#ffffff;stroke-width:0.5">
    <g
       id="az-">
      <path
         d="m 1621.815,447.5016 c 2.1141,-1.62053 3.4022,-1.3626 5.291,0.2544 1.1911,1.01973 2.0993,0.43649 3.419,0.763 1.105,0.2734 1.5305,1.01331 2.4905,0.53439 2.1443,-1.06975 -1.7212,-3.06452 -2.1104,-3.28578 -0.9433,-0.53619 -1.3147,-1.30062 -1.2556,-1.69481 0.062,-0.41001 1.6597,-1.34963 0.9218,-2.02142 0.6074,-0.17621 3.4744,1.16771 4.3529,2.31959 0.5909,0.77494 1.7895,0.84269 2.0902,1.45369 0.4235,0.86074 0.6906,1.69034 1.6306,2.00034 0.836,0.275 1.776,0.531 2.663,0.511 0.802,-0.018 1.2476,-1.14097 1.589,-1.81 0.1643,-0.32191 3.3827,-2.82835 2.6828,-3.72525 1.542,0.5 3.1772,2.32125 4.0222,3.60525 1.212,1.84 2.213,3.483 3.736,5.107 0.242,0.092 0.482,0.188 0.721,0.288 0.021,0.264 0.045,0.528 0.069,0.792 0.692,0.769 1.417,1.128 2.463,1.211 2.283,0.182 3.47,0.864 4.377,2.965 -0.82,-1.139 -3.13,-1.628 -4.314,-0.856 -1.698,1.107 -1.758,1.891 -2.09,3.744 -0.298,1.664 -0.017,2.781 0.333,4.306 0.125,0.543 -0.677,1.108 -0.733,1.752 -0.085,0.976 0.345,1.728 -0.825,1.494 1.219,-1.152 -1.253,-1.803 -0.997,-0.487 0.358,1.843 -0.4084,3.65419 0.2476,5.59619 -0.533,0.015 -1.413,0.0914 -1.883,-0.23757 -1.7132,-1.17704 -4.7392,-2.9008 -4.5502,-3.92943 0.097,-0.52945 1.38,-0.49842 1.4424,-0.91221 0.1311,-0.86851 -1.9025,-2.45834 0.2702,-3.27098 -1.9042,-2.18778 -3.5845,-3.66832 -5.533,-1.613 -1.9052,2.00956 -2.9937,1.81553 -3.2456,2.54484 -1.5583,2.31408 -2.3715,2.46668 -3.5118,3.18398 -0.46,-0.577 -1.1416,-2.66382 0.1204,-2.81982 -0.341,-0.416 -1.911,-1.122 -1.634,-1.823 0.12,-0.304 0.7636,-0.47885 0.28,-0.8476 -0.3773,-0.28769 -1.0221,-0.5861 -1.438,-0.49 -1.5321,0.35401 -3.5797,-2.34904 -5.349,-3.3904 0.8234,-0.3961 1.9947,-0.0787 2.447,-1.091 0.4794,-1.07308 -0.902,-1.378 -1.624,-1.739 -1.181,-0.588 -4.577,-3.147 -1.823,-4.01 -0.655,-1.782 -2.711,-1.798 -4.041,-2.809 1.9987,0.32061 -0.5304,-1.13372 -0.702,-1.5624"
         id="path5796" />
      <path
         d="m 1622.158,461.231 c 1.156,-0.253 3.096,-0.808 2.96,1.08 0.855,-0.499 1.443,0.691 2.392,0.396 0.481,-0.149 1.855,-0.485 2.227,0.048 0.768,1.099 -0.2706,1.3216 1.2594,2.0856 0.633,0.316 1.3946,2.91161 1.9866,3.58061 -4.2763,-0.24703 -4.3486,-0.69403 -6.355,-2.33621 -1.6665,-1.36401 -3.61,-2.804 -4.47,-4.854"
         id="path5798" />
    </g>
    <path
       d="m 1639.0904,464.89984 c -1.5583,2.31408 -2.3715,2.46668 -3.5118,3.18398 -0.46,-0.577 -1.1416,-2.66382 0.1204,-2.81982 -0.341,-0.416 -1.911,-1.122 -1.634,-1.823 0.12,-0.304 0.7636,-0.47885 0.28,-0.8476 -0.3773,-0.28769 -1.0221,-0.5861 -1.438,-0.49 -1.5321,0.35401 -3.5797,-2.34904 -5.349,-3.3904 0.8234,-0.3961 1.9947,-0.0787 2.447,-1.091 0.1694,-0.37911 0.1065,-0.66235 -0.078,-0.88605 0,0 1.0081,0.46504 1.1444,0.48451 0.1364,0.0195 1.227,-1.01263 1.227,-1.01263 0,0 -0.1789,-0.56135 0.073,-0.90981 0.1931,-0.26716 0.6993,-0.4618 0.7838,-0.45335 0.1947,0.0195 1.1489,1.75263 1.3047,1.88895 0.1558,0.13632 2.0642,1.46053 2.0642,1.61632 0,0.15579 0.4089,1.42158 1.0515,1.75263 0.6427,0.33106 1.0517,1.01264 1.0517,1.01264 0,0 -0.3311,0.54526 -0.1753,1.32421 0.1558,0.77895 0.8763,1.42158 0.9152,1.61632 0.039,0.19474 -0.2531,0.83737 -0.2773,0.8441 z"
       id="nagorno-karabakh"
       style="stroke:none" />
  </g>
  <g
     transform="translate(-29.9017,-45.0745)"
     id="Iran"
     style="fill:#b9b9b9;stroke:#ffffff;stroke-width:0.30000001">
    <path
       d="m 1697.328,572.904 c 0.226,-0.115 0.466,-0.163 0.72,-0.145 -0.479,-0.294 -0.983,-0.342 -1.51,-0.144 0.264,0.097 0.526,0.194 0.79,0.289"
       id="path4560" />
    <path
       d="m 1703.088,575.496 c 0.134,-0.601 -0.106,-0.648 -0.72,-0.144 0.24,0.048 0.48,0.096 0.72,0.144"
       id="path4562" />
    <path
       d="m 1716.048,571.68 c -1.181,0.987 -1.996,2.694 -3.89,2.376 -0.169,1.771 2.514,-0.035 3.125,-0.305 0.638,-0.281 1.373,-0.061 2.014,-0.363 0.902,-0.425 1.058,-1.826 2.131,-1.924 -1.204,-1.177 -2.143,0.774 -3.38,0.216"
       id="path4564" />
    <path
       d="m 1617.268,464.04 c 1.9933,-0.67926 2.7065,0.79238 2.6638,-2.355 -0.019,-1.36548 1.1779,-0.85775 2.0402,-0.224 0.8481,0.62334 1.313,1.616 2.086,2.319 0.747,0.679 1.6,1.228 2.345,1.908 1.526,1.392 2.19,2.166 4.385,2.505 1.36,0.21 3.291,0.356 4.62,-0.038 0.733,-0.217 3.204,-2.359 3.456,-3.046 0.291,-0.792 1.383,-0.963 1.983,-1.478 0.695,-0.597 1.298,-1.308 2.057,-1.831 1.982,-1.365 3.755,0.716 4.965,2.167 -2.644,0.995 0.938,3.218 -0.538,3.553 -2.74,0.622 0.102,2.232 1.271,2.96 0.824,0.513 1.561,1.305 2.445,1.711 0.357,0.163 1.435,-0.047 1.545,0.177 1.099,2.233 0.937,5.913 3.409,7.209 2.102,1.104 4.602,0.585 6.727,1.494 1.381,0.592 1.845,2.133 2.961,3.026 1.221,0.978 3.07,1.668 4.499,2.304 2.687,1.196 6.292,2.029 9.175,1.164 3.465,-1.038 7.815,-2.716 11.486,-2.144 -0.74,0.278 -1.532,0.193 -2.3,0.288 0.529,0.395 2.597,1.169 2.891,0.093 0.257,-0.942 -1.2121,-3.53131 -1.4951,-4.49431 1.712,0.33868 3.008,0.30855 4.625,-0.37444 1.8441,-0.77888 0.5779,-1.45638 1.4099,-2.73638 0.827,-1.272 2.7651,-2.531 4.1561,-3.056 2.024,-0.765 3.98,0.409 6.009,-0.033 -0.698,-1.146 0.8293,-1.25873 1.7101,-1.33387 1.1107,-0.0948 2.3868,0.31201 3.4705,0.20087 1.5506,-0.159 1.5638,0.0421 2.3218,1.44607 0.722,1.336 2.7365,1.30587 4.0795,1.54887 1.497,0.269 2.5352,1.77219 4.1122,1.89719 1.757,0.139 3.151,-0.152 4.865,0.487 1.689,0.63 2.2343,1.313 3.1553,2.735 0.938,1.448 3.0629,1.24287 4.3869,2.13687 1.175,0.793 1.5599,2.25733 2.7595,2.98582 1.3586,0.82496 4.7969,-0.76133 5.8444,0.37031 0.8766,0.9469 1.0658,3.58466 1.247,4.60631 0.2056,1.15941 -0.7341,0.73469 0.1789,1.52369 0.564,0.488 1.089,2.557 1.176,3.289 0.138,1.153 -0.908,1.945 -0.698,3.175 0.285,1.675 0.864,5.266 -1.633,5.55 0.224,0.315 1.083,1.021 1.01,1.44 -0.118,0.67 -1.647,0.874 -1.936,1.745 -0.518,1.563 0.388,5.239 2.293,5.368 2.445,0.166 0.2319,2.09599 -0.1405,3.324 -0.5432,1.79094 2.023,5.80551 2.5298,7.81791 0.5773,2.29239 0.386,4.51659 1.9572,6.26359 1.2531,1.39322 3.9865,0.6635 5.6185,1.4805 1.705,0.855 1.5963,3.487 1.1633,4.936 -0.445,1.49 -1.8147,2.72394 -2.5666,4.06114 -0.624,1.10989 -2.1996,3.62913 -2.8286,4.07459 0.7924,0.8 1.4384,1.42075 1.8171,1.75841 3.6101,3.21917 4.8602,7.90894 7.7648,9.50186 0.8796,0.48236 1.7685,0.77773 2.6805,1.22273 0.855,0.418 1.8955,1.16404 2.8645,1.22704 1.349,0.087 1.8059,4.75047 1.8615,5.94713 0.1943,4.18796 0.958,3.04359 3.3622,3.06578 1.1434,0.0105 0.4932,3.00037 0.4122,4.18237 -0.164,2.389 -7.8539,0.19795 -6.6239,3.43095 -0.723,-0.162 -2.0125,0.31071 -2.4044,0.86046 -1.3206,1.85236 -1.1447,4.92942 -1.274,7.376 -0.036,0.67546 0.1934,2.13254 -1.0016,1.69854 0.556,1.885 -3.554,0.201 -4.204,-0.001 -0.729,-0.227 -2.404,-0.073 -2.597,-1.09 -0.268,-1.404 -1.9,-0.566 -1.188,0.083 -0.323,0.061 -3.982,-0.048 -4.287,-0.293 -1.173,-0.938 -3.441,-0.799 -4.751,-0.396 -1.105,0.341 -1.905,-0.271 -2.758,-0.878 -1.139,-0.81 -2.08,-0.317 -3.312,-0.649 -0.981,-0.265 -1.835,0.538 -2.823,0.128 -0.908,-0.377 -1.13,-1.666 -2.16,-0.504 0.271,-1.406 -2.741,-1.004 -3.579,-1.788 -1.76,-1.647 -2.279,-5.3 -2.681,-7.563 -0.504,-2.846 -3.072,-4.414 -5.867,-4.2 -1.274,0.098 -2.183,1.163 -3.374,1.508 -0.993,0.288 -2.26,0.484 -1.687,1.638 0.367,0.739 -2.216,0.409 -2.39,0.451 -1.286,0.311 -1.782,1.648 -2.882,2.196 -1.853,0.924 -3.544,-1.602 -5.336,-1.602 -2.203,0 -3.437,0.431 -4.801,-1.594 -0.682,-1.011 -2.2,-1.338 -3.23,-1.908 -1.344,-0.742 -2.652,-1.552 -4.054,-2.186 1.352,-1.284 -1.952,-2.478 -2.72,-2.828 -0.697,-0.319 -1.321,-0.94 -2.06,-1.118 -1.038,-0.25 -2.431,0.161 -3.298,-0.492 -1.917,-1.443 -2.384,-2.76 -3.652,-4.768 -0.6,-0.949 -0.193,-2.249 -1.145,-3.016 -0.649,-0.523 -1.674,-0.812 -1.676,-1.819 1.184,0.115 1.012,-0.925 0.132,-1.121 -0.587,-0.131 -2.059,-0.016 -1.462,-1.064 0.772,-1.355 -1.494,-2.836 -2.2,-3.547 -1.19,-1.198 -2.056,-2.474 -2.659,-4.037 -1.034,-2.677 -3.124,2.008 -4.26,0.407 -0.763,-1.073 -1.91,-0.31 -2.417,-1.324 -0.243,-0.485 -1.725,-0.745 -2.184,-1.482 0.747,-0.049 1.491,0.243 2.229,0 -0.244,-0.998 -1.413,-1.268 -2.229,-0.792 0.188,0.222 0.381,0.438 0.58,0.647 -2.141,-0.28 1.35,4.627 -2.38,3.097 0.256,0.749 -0.391,0.945 -0.965,0.692 -0.806,-0.354 -0.841,-1.285 -1.127,-2.003 -0.589,-1.482 -2.675,-1.604 -2.922,-3.438 -0.156,-1.166 0.376,-3.487 -1.276,-3.436 -2.599,0.081 -1.789,-3.48 -1.437,-5.246 0.47,-2.347 -0.691,-2.778 -2.063,-4.427 -1.395,-1.677 -1.129,-2.643 -3.394,-3.072 -1.728,-0.327 -2.867,-2.176 -4.236,-3.12 -0.747,-0.515 -1.621,-1.163 -2.577,-1.083 -1.601,0.132 -0.643,-0.77 -1.813,-1.221 2.563,-0.782 -2.482,-4.771 -3.298,-5.466 -0.597,-0.509 -1.12,-1.116 -1.703,-1.643 -0.865,-0.781 -0.071,-0.962 0.286,-1.939 0.326,-0.89 0.149,-1.324 -0.58,-1.894 -0.726,-0.567 -0.154,-1.407 -0.035,-2.091 0.463,0.285 0.967,0.429 1.511,0.433 -0.119,-0.638 -0.433,-1.231 -0.501,-1.88 -0.12,-1.123 1.123,-0.941 1.211,-1.773 0.128,-1.214 0.175,-0.87 1.194,-0.864 0.959,0.005 0.849,-0.866 0.527,-1.417 -0.538,-0.926 -1.84,-1.813 -1.51,-3.043 0.284,-1.062 1.904,-0.79 2.178,-1.966 -0.695,0.202 -1.196,-0.321 -1.875,-0.252 -0.826,0.084 -1.72,0.482 -2.524,0.036 -1.217,-0.674 -1.414,-1.66 -3.021,-1.296 1.1,-2.538 -3.011,-3.271 -2.845,-4.968 0.097,-0.989 0.02,-1.339 -0.917,-1.733 -0.241,-0.102 -1.7004,-3.29486 -1.5992,-3.721 0.3638,-1.531 -0.6594,-0.92038 -1.4098,-1.963 -0.7429,-1.03216 -0.3786,-2.75795 -1.219,-3.119 -0.4405,-0.18924 -2.1421,-0.72219 -2.0761,-1.40719 0.099,-1.025 0.5791,-2.44281 1.3561,-3.17681 -2.1547,-0.44342 -1.1657,-3.28636 -2.1293,-4.37906 -0.5393,-0.61157 -0.3583,-1.1581 -0.7025,-1.87319 -0.1906,-0.39597 -1.0476,-2.00397 -1.5582,-2.81375"
       id="path4606"
       style="fill:#b9b9b9;stroke:#ffffff;stroke-width:0.5" />
  </g>
  <path
     d="m 1580.8187,403.54483 c 0.7663,-0.051 2.9554,0.52992 4.2431,0.0154 1.8383,-0.73441 4.0355,-0.38444 5.9745,-0.36273 -0.093,-0.38443 0.499,-0.67735 0.89,-0.73669 0.234,0.228 2.649,1.93769 0.688,1.52869 1.33,1.011 3.386,1.026 4.041,2.809 -2.584,0.81 0.293,3.115 1.417,3.786 0.594,0.354 1.935,0.589 2.094,1.394 0.31,1.565 -1.667,1.316 -2.511,1.66 0.872,0.333 4.189,3.74 5.086,3.381 0.456,-0.183 2.597,0.493 1.787,0.979 -1.206,0.723 0.862,1.698 1.267,2.192 -1.263,0.155 -0.5478,2.27055 -0.088,2.84755 -0.1489,0.12452 -2.5618,0.63627 -2.6988,0.25444 -0.791,-1.285 -1.2373,-3.18562 -2.5617,-3.92799 -0.5691,-0.319 -0.1175,-1.67805 -1.0102,-1.86409 -0.5572,-0.11616 -0.9822,-0.0965 -1.8042,0.13791 -1.0314,0.29413 -1.5337,-0.91256 -2.4163,-0.39982 0.1296,-2.07975 -2.1628,-1.12149 -2.9589,-1.08248 -1.113,-0.83 -2.5673,-2.89688 -4.1113,-2.84988 -1.593,0.049 -2.9468,-0.0216 -4.3798,-0.74664 0.5619,-0.37993 0.2069,-1.14087 -0.033,-1.67381 -0.4468,-0.99191 -0.4719,-1.2051 -0.1065,-2.09532 0.6827,-1.6632 -2.2504,-2.24383 -2.8079,-5.26341"
     id="am"
     style="fill:#b9b9b9;stroke:#ffffff;stroke-width:0.5" />
  <path
     d="m 1524.2863,489.52555 c 0.348,-0.477 2.242,-2.762 1.37,-3.312 1.487,-2.477 1.84,-5.354 2.379,-8.136 0.166,-0.851 0.19,-2.25 0.878,-2.863 0.516,-0.459 -0.269,-1.453 0.202,-1.961 0.433,-0.466 1.484,0.005 1.985,0.067 1.185,0.146 1.028,-1.078 1.396,-1.795 1.7261,0.0885 0.4356,6.67846 0.5821,8.60446 -0.2078,-0.76873 -1.4325,-1.78381 -2.3588,-2.03126 -1.1069,-0.2957 -1.4521,1.09996 -1.6693,1.95753 -0.2432,0.9603 -0.77,4.36709 0.619,4.18727 2.906,-0.3762 -1.2465,1.59532 -0.6808,3.675 0.3163,1.163 3.3128,-1.06532 3.9368,-1.07232 -0.1449,1.05138 -0.098,1.71122 -0.049,3.38673 0.043,1.49514 -0.5619,3.43722 -1.0073,4.74704 -0.8673,2.55042 -0.2294,6.93291 -1.9624,9.44855 l -5.62,-14.903"
     id="il"
     style="fill:#b9b9b9;stroke:#ffffff;stroke-width:0.5" />
  <g
     id="Lebanon">
    <path
       d="m 1529.1163,473.25355 c 1.59,-1.854 1.538,-5.199 2.888,-7.283 0.669,-1.032 -0.115,-2.426 0.653,-3.421 0.599,-0.774 2.236,-1.63 1.709,-2.832 0.617,0.13 1.551,0.393 2.142,0.041 1.359,-0.81 0.399,0.732 0.599,1.196 -0.026,-0.062 0.895,0.282 0.991,0.375 0.685,0.659 0.299,0.513 0.817,1.463 1.104,2.021 -2.423,2.345 -1.019,4.052 -1.429,-0.427 -3.861,0.572 -2.159,2.16 -0.634,0.146 -2.786,2.234 -2.881,2.88 -0.156,-0.083 -0.276,-0.203 -0.359,-0.36 -0.237,0.465 -0.2511,1.0165 -0.505,1.491 -0.5382,1.00587 -2.0934,-0.39296 -2.876,0.238"
       id="lb-"
       style="fill:#b9b9b9;stroke:#ffffff;stroke-width:0.5" />
  </g>
  <g
     id="kw">
    <g
       transform="translate(-29.9017,-45.0745)"
       id="kw-"
       style="fill:#b9b9b9;stroke:#ffffff;stroke-width:0.30000001">
      <path
         d="m 1657.008,545.256 c 0.141,0.313 -1.702,3.358 0.58,3.132 1.975,-0.196 -0.036,-2.463 -0.58,-3.132"
         id="path5440" />
      <path
         d="m 1645.708,552.815 c 3.2037,-1.1666 1.7157,-7.66132 5.057,-8.277 1.2918,-0.23804 3.1343,-0.35839 4.831,1.042 0.4391,0.36243 1.568,2.708 1.122,3.276 -0.952,-1.335 -2.306,0.929 -2.81,1.584 1.462,-0.194 3.089,0.374 3.45,1.954 0.44,1.921 1.9082,3.63258 2.5552,5.57258 -1.2384,-0.71107 -4.3239,0.48629 -5.5382,-0.36558 -0.9477,-0.66486 -1.0636,-2.10479 -1.439,-3.1 -0.5018,-1.33045 -5.29,-0.97304 -7.228,-1.686"
         id="path5486"
         style="fill:#b9b9b9;stroke:#ffffff;stroke-width:0.5" />
    </g>
  </g>
  <g
     id="qa">
    <path
       d="m 1649.7863,540.78955 c -0.044,-0.39 -0.608,-2.786 0.5,-1.656 -0.063,-0.388 -0.317,-2.542 0.37,-0.72 0.055,-1.816 0.702,-6.609 3.204,-3.966 0.627,0.663 1.831,1.128 1.837,2.168 0,0.726 -0.354,1.186 -0.519,1.849 -0.144,0.574 0.207,1.32 0.263,1.893 0.055,0.573 0.664,0.584 0.824,1.08 0.264,0.809 0.068,1.543 -0.259,2.29 -0.566,1.293 -0.38,2.237 -1.798,2.662 -1.178,0.354 -2.239,1.291 -3.028,-0.439 -0.72,-1.578 -1.02,-3.477 -1.394,-5.161"
       id="qa-"
       style="fill:#b9b9b9;stroke:#ffffff;stroke-width:0.5" />
  </g>
  <g
     id="cy"
     style="fill:#b9b9b9;stroke:#ffffff;stroke-width:0.30000001">
    <path
       d="m 1507.5863,456.76555 c -0.097,-0.264 -0.193,-0.528 -0.29,-0.792 0.983,0.968 2.432,-0.875 3.556,-0.799 1.729,0.117 0.43,-1.62 2.035,-1.582 1.722,0.042 3.253,0.349 4.98,-0.116 1.941,-0.522 3.677,-2.54 5.709,-2.544 -1.287,0.81 -2.441,2.705 -3.872,3.154 -1.563,0.49 0,1.988 0.622,2.678 -0.668,0.082 -2.186,-0.051 -2.699,0.411 -0.57,0.514 -0.763,1.243 -1.545,1.513 -0.684,0.235 -3.377,0.524 -2.956,1.748 -2.257,-1.14 -4.476,-0.802 -5.54,-3.671"
       id="cy-" />
    <path
       d="m 1515.0328,456.7906 c -0.1447,-0.15939 0.3418,-0.10596 -0.075,-1.27325 -0.018,-0.0516 -2.0925,-0.0923 -2.5533,0.099 -1.9738,0.81961 -1.8055,-0.46886 -1.5518,-0.44184 1.2811,0.13646 0.43,-1.62 2.035,-1.582 1.722,0.042 3.253,0.349 4.98,-0.116 1.941,-0.522 3.677,-2.54 5.709,-2.544 -1.287,0.81 -2.441,2.70515 -3.872,3.154 -1.0759,0.33747 -0.6696,1.15232 -0.1096,1.85258 0.2535,0.31696 -0.3975,0.1499 -0.6453,0.17591 -0.08,0.01 -0.2293,-0.24544 -0.3885,-0.22586 -0.089,0.0109 -0.1375,0.25499 -0.2836,0.3232 -1.7723,0.82752 -3.1475,0.84222 -3.2445,0.57822 z"
       id="northern_cyprus"
       style="stroke:none" />
  </g>
  <g
     id="ps">
    <g
       transform="translate(-29.9017,-45.0745)"
       id="ps-"
       style="fill:#b9b9b9;stroke:#ffffff;stroke-width:0.5">
      <path
         d="m 1553.758,533.592 c 0.694,-0.685 1.34,-1.438 1.801,-2.304 0.861,0.544 -0.967,2.8688 -1.37,3.2878 -0.171,-0.299 -0.315,-0.6588 -0.431,-0.9838"
         id="path5472" />
      <path
         d="m 1558.658,526.104 c 0.3667,-0.85734 0.4906,-3.26436 1.957,-2.976 0.5086,0.10002 1.9952,0.97283 2.1818,1.46686 0.5422,1.43525 0.4024,3.44979 0.3541,5.01014 -0.033,1.07192 -0.049,2.22754 -0.6136,2.49214 l -2.0942,0.98058 c -0.9939,0.46534 -1.986,0.49834 -1.56,-1.06066 0.113,-0.413 1.5829,-2.58706 1.7929,-2.51606 -0.436,-0.149 -1.5651,0.28277 -1.828,-0.478 -0.4643,-1.34373 -0,-2.35464 -0.19,-2.919"
         id="path5474" />
    </g>
  </g>
  <g
     id="tt">
    <g
       transform="translate(-29.9017,-45.0745)"
       id="tt-"
       style="fill:#b9b9b9;stroke:#ffffff;stroke-width:0.30000001">
      <path
         d="m 829.728,717.768 c 0.842,-1.256 3.108,-1.125 3.625,-2.606 0.318,-0.911 0.113,-3.013 -1.245,-2.938 0.962,-0.973 2.597,-1.168 3.887,-1.287 2.629,-0.241 0.408,1.407 0.573,2.943 0.154,1.428 1.032,2.739 -0.816,3.417 -1.948,0.713 -4.084,-0.293 -6.024,0.471"
         id="path6114" />
      <path
         d="m 838.728,708.264 c 0.152,-0.903 0.964,-1.459 1.8,-1.655 0.057,0.971 -1.195,1.214 -1.8,1.655"
         id="path6120" />
    </g>
  </g>
  <g
     id="cv">
    <g
       transform="translate(-29.9017,-45.0745)"
       id="cv-"
       style="fill:#b9b9b9;stroke:#ffffff;stroke-width:0.30000001">
      <path
         d="m 1110.598,658.296 c 0.735,0.065 2.406,-1.029 2.054,-1.917 -0.582,-1.472 -3.221,0.447 -2.054,1.917"
         id="path5762" />
      <path
         d="m 1112.688,659.448 c 2.105,-0.18 -0.793,-1.91 0,0"
         id="path5764" />
      <path
         d="m 1116.507,676.512 c 0.55,-0.204 1.113,-1.422 0.455,-1.822 -1.138,-0.691 -1.548,1.195 -0.455,1.822"
         id="path5766" />
      <path
         d="m 1117.658,662.04 c 0.204,-1.645 1.726,-0.028 2.23,-0.937 -0.861,-0.389 -1.985,-0.919 -2.95,-0.575 0.291,0.48 0.531,0.984 0.72,1.512"
         id="path5768" />
      <path
         d="m 1123.127,675.72 c 1.157,-1.233 -0.752,-2.604 -1.3,-3.6 -0.565,1.474 -0.872,3.539 1.3,3.6"
         id="path5770" />
      <path
         d="m 1125.868,673.848 c 2.078,-2.123 -2.036,-1.301 0,0"
         id="path5772" />
      <path
         d="m 1128.958,666.36 c 2.037,-0.813 0.269,-1.866 -0.72,-2.232 0.045,0.894 -0.828,2.248 0.72,2.232"
         id="path5774" />
      <path
         d="m 1128.238,661.104 c 0.473,-0.693 0.322,-1.477 0.15,-2.231 -0.795,0.642 -0.155,1.435 -0.15,2.231"
         id="path5776" />
    </g>
  </g>
  <g
     id="pf">
    <g
       transform="translate(-29.9017,-45.0745)"
       id="pf-"
       style="fill:#b9b9b9;stroke:#ffffff;stroke-width:0.30000001">
      <path
         d="m 157.969,948.963 c 0.313,-0.719 0.097,-0.958 -0.648,-0.72 0.196,0.258 0.412,0.498 0.648,0.72"
         id="path2790" />
      <path
         d="m 158.544,950.903 c 0.54,-0.703 0.396,-0.943 -0.432,-0.721 0.145,0.241 0.288,0.481 0.432,0.721"
         id="path2792" />
      <path
         d="m 171.792,956.663 c 0.229,-0.648 0.167,-1.237 -0.72,-0.5 0.241,0.167 0.481,0.334 0.72,0.5"
         id="path2794" />
      <path
         d="m 176.041,958.323 c 0.322,0.485 0.819,0.93 1.44,0.93 0.174,-0.809 -0.398,-0.873 -0.967,-1.129 -0.833,-0.375 -0.669,-1.512 -1.51,-1.945 -0.798,-0.41 -1.726,0.419 -1.235,1.237 0.484,0.809 1.448,0.818 2.272,0.907"
         id="path2796" />
      <path
         d="m 233.353,882.143 c 0.296,-0.372 0.68,-0.588 1.152,-0.649 -0.121,-0.979 -1.125,-0.698 -1.8,-0.86 -0.04,0.612 0.176,1.115 0.648,1.509"
         id="path2798" />
      <path
         d="m 234.433,886.393 c 0.672,-0.636 0.258,-0.867 -0.504,-0.72 0.168,0.24 0.336,0.48 0.504,0.72"
         id="path2800" />
      <path
         d="m 237.672,882.073 c 0.24,-0.167 0.48,-0.333 0.72,-0.5 -0.709,-0.469 -0.949,-0.302 -0.72,0.5"
         id="path2802" />
      <path
         d="m 242.712,889.923 c 0.201,-0.669 1.18,-0.487 1.584,-1.01 -0.711,0.091 -1.274,-0.443 -1.973,-0.093 -0.769,0.385 -0.199,1.065 0.389,1.103"
         id="path2804" />
    </g>
  </g>
  <g
     id="ws">
    <g
       transform="translate(-29.9017,-45.0745)"
       id="ws-"
       style="fill:#b9b9b9;stroke:#ffffff;stroke-width:0.30000001">
      <path
         d="m 2721.678,921.533 c -0.446,0.217 -0.902,0.24 -1.369,0.069 0.439,1.529 1.797,3.133 3.496,2.119 0.737,-0.44 0.84,-1.316 0.422,-2.016 -0.58,-0.968 -1.741,-0.331 -2.549,-0.172"
         id="path4782" />
      <path
         d="m 2729.518,926.283 c 0.431,-2.068 -3.227,-2.401 -4.39,-1.511 0.946,1.527 2.849,1.324 4.39,1.511"
         id="path4784" />
    </g>
  </g>
  <g
     id="km">
    <g
       transform="translate(-29.9017,-45.0745)"
       id="km-"
       style="fill:#b9b9b9;stroke:#ffffff;stroke-width:0.30000001">
      <path
         d="m 1630.878,907.923 c 0.443,-0.406 0.17,-1.176 -0.01,-1.62 -0.453,-1.128 -0.165,-2.17 -0.502,-3.281 -1.379,-0.042 -0.774,1.778 -1.082,2.567 -0.483,1.241 0.995,1.571 1.592,2.334"
         id="path5750" />
      <path
         d="m 1633.758,911.813 c -0.24,-0.695 -0.881,-1.248 -1.66,-1.091 0,0.997 0.949,0.94 1.66,1.091"
         id="path5752" />
      <path
         d="m 1638.798,911.733 c 0.847,-2.194 -0.834,-1.376 -2.159,-1.73 0.744,0.545 1.55,1.021 2.159,1.73"
         id="path5754" />
    </g>
  </g>
  <g
     id="mu">
    <path
       d="m 1704.1463,932.61755 c -0.526,0.555 -3.04,4.262 -1.289,4.473 2.781,0.335 3.134,-4.871 1.289,-4.473"
       id="mu-"
       style="fill:#b9b9b9;stroke:#ffffff;stroke-width:0.30000001" />
  </g>
  <g
     id="fo">
    <g
       transform="translate(-29.9017,-45.0745)"
       id="fo-"
       style="fill:#b9b9b9;stroke:#ffffff;stroke-width:0.30000001">
      <path
         d="m 1273.828,276.192 c 0.327,-0.204 0.66,-0.396 1,-0.576 -1.393,-0.669 -2.265,0.444 -1,0.576"
         id="path4614" />
      <path
         d="m 1275.988,275.184 c -0.31,-0.047 -1.807,-1.677 -2.011,-0.974 -0.322,1.109 1.91,2.336 2.731,2.63 0.138,-0.559 -0.118,-0.661 -0.506,-0.912 -0.256,-0.18 -0.327,-0.428 -0.214,-0.744 0.746,0.673 0.866,0.577 0.36,-0.288 0.219,0.371 0.482,0.707 0.79,1.008 0.948,-1.023 -1.151,-1.809 -1.8,-2.088 -0.315,0.63 0.042,1.152 0.65,1.368"
         id="path4616" />
      <path
         d="m 1275.988,275.184 c -0.607,-0.216 -0.964,-0.738 -0.65,-1.368 0.649,0.279 2.749,1.064 1.8,2.088 -0.308,-0.301 -0.571,-0.637 -0.79,-1.008 0.506,0.865 0.386,0.961 -0.36,0.288"
         id="path4624" />
      <path
         d="m 1276.488,281.16 c 0.216,-0.965 -0.87,-1.515 -1.51,-1.944 0.145,0.861 0.728,1.573 1.51,1.944"
         id="path4618" />
      <path
         d="m 1276.848,278.353 c 0.299,-0.638 0.191,-1.302 -0.72,-0.648 0.216,0.241 0.456,0.457 0.72,0.648"
         id="path4620" />
      <path
         d="m 1278.078,275.04 c 0.662,-0.462 0.682,-1.073 -0.08,-1.44 -0.018,0.482 0.01,0.963 0.08,1.44"
         id="path4622" />
    </g>
  </g>
  <g
     id="st">
    <g
       transform="translate(-29.9017,-45.0745)"
       id="st-"
       style="fill:#b9b9b9;stroke:#ffffff;stroke-width:0.30000001">
      <path
         d="m 1350.218,804.453 c 0.679,-0.37 1.401,-0.95 1.641,-1.723 0.124,-0.399 0.061,-1.731 -0.69,-1.523 -1.733,0.479 -1.15,2.005 -0.951,3.246"
         id="path2898" />
      <path
         d="m 1356.908,791.424 c 0.311,-0.488 0.338,-0.992 0.08,-1.512 -0.601,0.418 -0.627,1.032 -0.08,1.512"
         id="path5384" />
    </g>
  </g>
  <g
     id="an">
    <g
       id="an-"
       style="fill:#b9b9b9;stroke:#ffffff;stroke-width:0.30000001">
      <path
         d="m 796.82028,603.35034 c -0.13541,0.38422 -0.21314,0.13032 -0.27776,0.23561 -0.0517,0.0842 -0.19385,-0.0757 -0.28718,-0.1287 -0.0933,-0.053 0.0213,-0.11322 -0.0475,-0.17172"
         id="path2580"
         style="fill:#b9b9b9;stroke:#ffffff;stroke-width:0.5" />
      <path
         d="m 748.99628,655.41353 c -1.237,-0.304 -2.921,-1.372 -2.95,-2.809 0.665,0.1 2.768,2.149 2.95,2.809"
         id="path6512" />
      <path
         d="m 752.73628,655.55753 c -0.163,-0.412 0.081,-1.47 -0.445,-1.681 -0.443,-0.179 -0.638,-0.129 -0.485,-0.768 0.937,0.708 2.108,1.24 0.93,2.449"
         id="path6514" />
    </g>
  </g>
  <g
     id="dm">
    <path
       d="m 807.09629,628.05355 c -0.111,-1.142 -1.084,-2.53 -0.5,-3.672 1.517,0.388 2.312,3.116 0.5,3.672"
       id="dm-"
       style="fill:#b9b9b9;stroke:#ffffff;stroke-width:0.30000001" />
  </g>
  <g
     id="to">
    <g
       id="to-"
       style="fill:#b9b9b9;stroke:#ffffff;stroke-width:0.30000001">
      <path
         d="m 2656.6363,943.55855 c 0.296,-0.42 0.609,-0.827 0.94,-1.22 -0.734,0.904 -1.304,-0.256 -2.17,-0.08 0.305,0.532 0.715,0.966 1.23,1.3"
         id="path5930" />
      <path
         d="m 2657.8563,945.21855 c -0.017,-0.28 -0.087,-0.547 -0.21,-0.8 0.07,0.267 0.14,0.533 0.21,0.8"
         id="path5932" />
    </g>
  </g>
  <g
     id="ki">
    <g
       id="ki-"
       style="fill:#b9b9b9;stroke:#ffffff;stroke-width:0.30000001">
      <path
         d="m 68.95528,744.83753 c 0.144,-0.048 0.288,-0.096 0.432,-0.145 -0.548,-0.608 -1.13,-2.463 -2.088,-2.52 0.364,0.886 0.538,1.59 -0.576,1.368 0.608,0.668 1.578,0.697 2.232,1.297"
         id="path4790" />
      <path
         d="m 2600.3086,742.38365 c 0.229,-0.648 0.167,-1.237 -0.72,-0.5 0.241,0.167 0.481,0.334 0.72,0.5"
         id="path35688" />
    </g>
  </g>
  <g
     id="fm">
    <path
       d="m 2477.2063,700.91755 c 1.316,-0.308 0.325,-1.855 -0.721,-1.513 0.03,0.605 0.27,1.109 0.721,1.513"
       id="fm-"
       style="fill:#b9b9b9;stroke:#ffffff;stroke-width:0.30000001" />
  </g>
  <g
     id="bh">
    <path
       d="m 1646.9073,533.08555 c 0.229,0.479 0.326,0.982 0.289,1.512 -0.134,0.691 0.704,1.188 0.86,1.8 0.296,-0.76 0.331,-4.892 -1.149,-3.312"
       id="bh-"
       style="fill:#b9b9b9;stroke:#ffffff;stroke-width:0.30000001" />
  </g>
  <g
     id="ad">
    <path
       d="m 1287.4863,391.31755 c 0.552,-0.716 1.858,-0.365 2.3,0.288 -0.486,0.647 -1.309,0.987 -2.09,1.08 -0.038,-0.461 -0.109,-0.917 -0.21,-1.368"
       id="ad-"
       style="fill:#b9b9b9;stroke:#ffffff;stroke-width:0.5" />
  </g>
  <g
     id="mp">
    <path
       d="m 2373.8163,628.98855 c 0.209,-0.462 0.259,-0.941 0.15,-1.439 -0.492,0.388 -0.581,0.962 -0.15,1.439"
       id="mp-"
       style="fill:#b9b9b9;stroke:#ffffff;stroke-width:0.30000001" />
  </g>
  <g
     id="pw">
    <path
       d="m 2296.1363,695.94955 c 0.578,-0.779 1.043,-2.01 0.57,-2.952 -0.628,0.75 -1.311,2.033 -0.57,2.952"
       id="pw-"
       style="fill:#b9b9b9;stroke:#ffffff;stroke-width:0.30000001" />
  </g>
  <g
     id="sc">
    <path
       d="m 1694.4963,800.99855 c 0.08,-0.7 -0.189,-1.573 -1.08,-1.37 0.534,0.28 0.953,0.774 1.08,1.37"
       id="sc-"
       style="fill:#b9b9b9;stroke:#ffffff;stroke-width:0.30000001" />
  </g>
  <g
     id="ag">
    <g
       id="ag-"
       style="fill:#b9b9b9;stroke:#ffffff;stroke-width:0.30000001">
      <path
         d="m 805.65628,612.57453 c -0.94,0.037 -1.243,-1.335 -0.21,-1.441 0.927,-0.096 0.575,1.051 0.21,1.441"
         id="path6116" />
      <path
         d="m 806.09628,607.82153 c -0.578,-0.111 -0.923,-0.563 -0.87,-1.151 0.839,-0.296 1.103,0.496 0.87,1.151"
         id="path6118" />
    </g>
  </g>
  <g
     id="bb">
    <path
       d="m 819.55629,646.62955 c -0.959,-0.41 -0.79,-1.311 -0.79,-2.16 0.802,0.298 2.27,1.636 0.79,2.16"
       id="bb-"
       style="fill:#b9b9b9;stroke:#ffffff;stroke-width:0.30000001" />
  </g>
  <g
     id="tc">
    <g
       id="tc-"
       style="fill:#b9b9b9;stroke:#ffffff;stroke-width:0.30000001">
      <path
         d="m 731.21628,571.46153 c -0.12,-0.24 -0.24,-0.48 -0.36,-0.721 0.49,0.306 0.994,0.33 1.51,0.072 -0.371,0.24 -0.754,0.456 -1.15,0.649"
         id="path5528" />
      <path
         d="m 735.81528,571.46153 c -0.24,-0.145 -0.48,-0.288 -0.72,-0.433 0.843,-0.698 0.957,-0.209 0.72,0.433"
         id="path5532" />
      <path
         d="m 737.11628,572.18153 c -0.255,-0.225 -0.495,-0.465 -0.72,-0.72 0.661,-0.053 0.605,0.204 0.72,0.72"
         id="path5534" />
    </g>
  </g>
  <g
     id="vc">
    <path
       d="m 807.02629,645.98155 c -1.021,-0.618 -0.314,-1.585 0.22,-2.231 0.528,0.735 0.282,1.573 -0.22,2.231"
       id="vc-"
       style="fill:#b9b9b9;stroke:#ffffff;stroke-width:0.30000001" />
  </g>
  <g
     id="lc">
    <path
       d="m 809.18529,640.94155 c -1.39,-0.555 -0.666,-1.98 0,-2.808 1.025,0.543 0.674,2.138 0,2.808"
       id="lc-"
       style="fill:#b9b9b9;stroke:#ffffff;stroke-width:0.30000001" />
  </g>
  <g
     id="yt">
    <path
       d="m 1613.4263,871.98855 c 0.476,-0.643 1.08,-2.018 0,-2.45 -0.272,0.563 -0.411,1.917 0,2.45"
       id="yt-"
       style="fill:#b9b9b9;stroke:#ffffff;stroke-width:0.30000001" />
  </g>
  <g
     id="gd">
    <path
       d="m 802.48629,655.70155 c -0.768,-0.732 -0.124,-1.668 0.65,-2.017 0.29,0.759 0.056,1.587 -0.65,2.017"
       id="gd-"
       style="fill:#b9b9b9;stroke:#ffffff;stroke-width:0.30000001" />
  </g>
  <g
     id="mt">
    <path
       d="m 1379.3563,449.85355 c -0.792,-0.083 -1.543,-0.824 -1.15,-1.655 0.581,0.34 1.947,0.768 1.15,1.655"
       id="mt-"
       style="fill:#b9b9b9;stroke:#ffffff;stroke-width:0.30000001" />
  </g>
  <g
     id="mv">
    <path
       d="m 1785.0883,736.35884 c 0.08,-0.7 -0.189,-1.573 -1.08,-1.37 0.534,0.28 0.953,0.774 1.08,1.37"
       id="mv-"
       style="fill:#b9b9b9;stroke:#ffffff;stroke-width:0.30000001" />
  </g>
  <g
     id="ky">
    <path
       d="m 660.00329,592.34155 c 0.73,0.045 1.437,-0.166 2.16,-0.216 -0.65,0.448 -1.412,0.838 -2.232,0.72 0.023,-0.168 0.048,-0.336 0.072,-0.504"
       id="ky-"
       style="fill:#b9b9b9;stroke:#ffffff;stroke-width:0.30000001" />
  </g>
  <g
     id="kn">
    <g
       id="kn-"
       style="fill:#b9b9b9;stroke:#ffffff;stroke-width:0.30000001">
      <path
         d="m 798.88629,610.62953 c -0.501,-0.434 -0.981,-0.89 -1.44,-1.368 0.858,-0.412 1.487,0.631 1.44,1.368"
         id="path5926" />
      <path
         d="m 799.32629,611.70953 c -0.05,-0.264 -0.1,-0.528 -0.15,-0.792 0.354,0.344 0.37,0.432 0.15,0.792"
         id="path5928" />
    </g>
  </g>
  <g
     id="ms">
    <path
       d="m 801.60083,615.39785 c -0.05,-0.264 0.11094,-0.15299 0.0609,-0.41699 0.177,0.172 0.25973,0.27414 0.27072,0.37828 0.011,0.10414 -0.0498,0.15559 -0.15978,0.33559"
       id="ms-"
       style="fill:#b9b9b9;stroke:#ffffff;stroke-width:0.30000001" />
  </g>
  <g
     id="bl">
    <path
       d="m 797.92039,604.47107 c -0.25836,0.008 -0.51673,0.0162 -0.77508,0.0244 0.44954,0.33495 0.39905,0.0761 0.77508,-0.0244"
       id="bl-"
       style="fill:#b9b9b9;stroke:#ffffff;stroke-width:0.30000001" />
  </g>
  <g
     id="nu">
    <path
       d="m 2671.9763,920.22855 c -0.621,0.082 -0.976,0.525 -0.8,1.15 0.38,-0.305 0.647,-0.688 0.8,-1.15"
       id="nu-"
       style="fill:#b9b9b9;stroke:#ffffff;stroke-width:0.30000001" />
  </g>
  <g
     id="pm">
    <path
       d="m 898.61629,353.30155 c -0.185,0.775 -0.644,1.447 -0.8,2.232 -0.055,-0.777 0.205,-1.528 0.15,-2.305 0.216,0.025 0.433,0.049 0.65,0.073"
       id="pm-"
       style="fill:#b9b9b9;stroke:#ffffff;stroke-width:0.30000001" />
  </g>
  <g
     id="ck">
    <g
       id="ck-"
       style="fill:#b9b9b9;stroke:#ffffff;stroke-width:0.30000001">
      <path
         d="m -0.795884,869.86103 c 0.313,-0.719 0.097,-0.958 -0.648,-0.72 0.196,0.258 0.412,0.498 0.648,0.72"
         id="path35652" />
      <path
         d="m 26.277116,917.31103 c 0.229,-0.648 0.167,-1.237 -0.72,-0.5 0.241,0.167 0.481,0.334 0.72,0.5"
         id="path35654" />
    </g>
  </g>
  <g
     id="wf">
    <path
       d="m 2670.5064,875.34963 c -0.621,0.082 -0.976,0.525 -0.8,1.15 0.38,-0.305 0.647,-0.688 0.8,-1.15"
       id="wf-"
       style="fill:#b9b9b9;stroke:#ffffff;stroke-width:0.30000001" />
  </g>
  <g
     id="as">
    <path
       d="m 2704.3673,883.93855 c 0.337,-0.336 0.673,-0.673 1.01,-1.01 -0.545,0.074 -0.936,0.466 -1.01,1.01"
       id="as-"
       style="fill:#b9b9b9;stroke:#ffffff;stroke-width:0.30000001" />
  </g>
  <g
     id="mh">
    <path
       d="m 2514.5063,714.02155 c 0.199,-0.32 0.176,-0.633 -0.07,-0.936 -0.263,0.198 -0.479,0.438 -0.649,0.72 0.24,0.072 0.479,0.143 0.719,0.216"
       id="mh-"
       style="fill:#b9b9b9;stroke:#ffffff;stroke-width:0.30000001" />
  </g>
  <g
     id="aw">
    <path
       d="m 739.77629,651.52555 c -0.12,-0.24 -0.24,-0.479 -0.36,-0.72 0.795,-0.313 1.129,0.837 1.229,1.368 -0.315,-0.182 -0.605,-0.398 -0.869,-0.648"
       id="aw-"
       style="fill:#b9b9b9;stroke:#ffffff;stroke-width:0.30000001" />
  </g>
  <g
     id="sh">
    <path
       d="m 1220.3311,908.35846 c 0.311,-0.488 0.338,-0.992 0.08,-1.512 -0.601,0.418 -0.627,1.032 -0.08,1.512"
       id="sh-"
       style="fill:#b9b9b9;stroke:#ffffff;stroke-width:0.30000001" />
  </g>
  <g
     id="je">
    <path
       d="m 1266.3863,335.58955 c 0.073,-0.216 0.147,-0.433 0.22,-0.648 -0.573,-0.204 -0.915,0.05 -0.94,0.648 0.24,0 0.48,0 0.72,0"
       id="je-"
       style="fill:#b9b9b9;stroke:#ffffff;stroke-width:0.30000001" />
  </g>
  <g
     id="ai">
    <path
       d="m 795.86629,602.42155 c 0.461,-0.342 0.941,-0.654 1.44,-0.937 -0.331,0.489 -0.849,0.854 -1.44,0.937"
       id="ai-"
       style="fill:#b9b9b9;stroke:#ffffff;stroke-width:0.30000001" />
  </g>
  <g
     id="mf">
    <path
       d="m 796.35905,603.31073 c 0.595,-0.673 0.59664,-0.34462 0.46123,0.0396"
       id="mf-"
       style="fill:#b9b9b9;stroke:#ffffff;stroke-width:0.5" />
  </g>
  <g
     id="gg">
    <path
       d="m 1263.1886,333.11172 c 0.459,-0.199 0.628,-0.196 0.504,-0.8 -0.168,0.266 -0.336,0.533 -0.504,0.8"
       id="gg-"
       style="fill:#b9b9b9;stroke:#ffffff;stroke-width:0.30000001" />
  </g>
  <g
     id="bm">
    <path
       d="m 802.05629,480.45355 c 0.25,-0.174 0.517,-0.318 0.8,-0.433 -0.267,0.145 -0.534,0.289 -0.8,0.433"
       id="bm-"
       style="fill:#b9b9b9;stroke:#ffffff;stroke-width:0.30000001" />
  </g>
  <g
     id="tv">
    <path
       d="m 2630.335,832.24257 c -0.621,0.082 -0.976,0.525 -0.8,1.15 0.38,-0.305 0.647,-0.688 0.8,-1.15"
       id="tv-"
       style="fill:#b9b9b9;stroke:#ffffff;stroke-width:0.30000001" />
  </g>
  <g
     id="nr">
    <path
       d="m 2531.0983,743.14595 c 0.217,-0.097 0.434,-0.193 0.65,-0.29 -0.238,-0.597 -0.748,-0.852 -1.3,-0.43 0.19,0.265 0.406,0.505 0.65,0.72"
       id="nr-"
       style="fill:#b9b9b9;stroke:#ffffff;stroke-width:0.30000001" />
  </g>
  <g
     id="pn">
    <path
       d="m 404.79588,987.83685 c 0.313,-0.719 0.097,-0.958 -0.648,-0.72 0.196,0.258 0.412,0.498 0.648,0.72"
       id="pn-"
       style="fill:#b9b9b9;stroke:#ffffff;stroke-width:0.30000001" />
  </g>
  <g
     id="mc">
    <path
       d="m 1328.8863,381.66955 c -0.1137,-0.144 0.1563,-0.40428 0.3969,-0.44909 0.2131,-0.0397 -0.1075,0.55293 -0.3969,0.44909"
       id="mc-"
       style="fill:#b9b9b9;stroke:#ffffff;stroke-width:0.5" />
  </g>
  <g
     id="gu">
    <path
       d="m 2368.4163,645.04555 c 0.253,-0.289 1.271,-2.729 1.229,-3.168 -1.515,0.021 -2.25,2.121 -1.229,3.168"
       id="gu-"
       style="fill:#b9b9b9;stroke:#ffffff;stroke-width:0.30000001" />
  </g>
  <g
     id="sg">
    <path
       d="m 2063.4263,747.21355 c -0.959,0.252 0.509,2.079 1.8,0.359 -0.569,-0.271 -1.169,-0.391 -1.8,-0.359"
       id="sg-"
       style="fill:#b9b9b9;stroke:#ffffff;stroke-width:0.30000001" />
  </g>
  <g
     id="nf">
    <path
       d="m 2521.2674,998.14342 c -0.7872,-0.46605 -1.5808,-0.93158 -2.3732,-1.39812 -0.7708,0.54887 -1.1579,0.96454 1.0629,1.27213"
       id="nf-"
       style="fill:#b9b9b9;stroke:#ffffff;stroke-width:0.30000001" />
  </g>
  <g
     id="tk">
    <path
       d="m 2707.9233,843.76569 c -0.1208,-0.0968 0.1732,-0.0802 -0.1122,-0.13935 -0.1609,-0.0334 -0.2664,0.13843 0.074,0.20235"
       id="tk-"
       style="fill:#b9b9b9;stroke:#ffffff;stroke-width:0.30000001" />
  </g>
  <path
     d="m 262.8902,227.40157 a 0.82434213,0.82434213 0 1 1 -1.64869,0 0.82434213,0.82434213 0 1 1 1.64869,0 z"
     transform="matrix(3.2253849,0,0,3.2253849,-139.1383,0)"
     id="Tolima"
     style="opacity:0.80444444;fill:#ede4db;fill-opacity:1;stroke:#dac8b7;stroke-width:4;stroke-miterlimit:4;stroke-opacity:1;stroke-dasharray:none" />
  <use
     transform="translate(65.192904,-58.378956)"
     id="Barcelona"
     x="0"
     y="0"
     width="2752.77"
     height="1537.63"
     xlink:href="#Tolima" />
  <use
     transform="translate(902.36604,-301.03155)"
     id="Tabriz"
     x="0"
     y="0"
     width="2752.77"
     height="1537.63"
     xlink:href="#Tolima" />
  <use
     transform="translate(816.77144,-299.36721)"
     id="Mersin"
     x="0"
     y="0"
     width="2752.77"
     height="1537.63"
     xlink:href="#Tolima" />
  <use
     transform="translate(841.02324,-283.19934)"
     id="Aleppo"
     x="0"
     y="0"
     width="2752.77"
     height="1537.63"
     xlink:href="#Tolima" />
  <use
     transform="translate(826.04419,-270.59791)"
     id="Beirut"
     x="0"
     y="0"
     width="2752.77"
     height="1537.63"
     xlink:href="#Tolima" />
  <use
     transform="translate(1064.0447,-192.84949)"
     id="Karachi"
     x="0"
     y="0"
     width="2752.77"
     height="1537.63"
     xlink:href="#Tolima" />
  <use
     transform="translate(1327.4119,-94.011852)"
     id="Nonthaburi"
     x="0"
     y="0"
     width="2752.77"
     height="1537.63"
     xlink:href="#Tolima" />
  <use
     transform="translate(859.59181,-164.54254)"
     id="Jedda"
     x="0"
     y="0"
     width="2752.77"
     height="1537.63"
     xlink:href="#Tolima" />
  <use
     transform="translate(911.21437,-89.914275)"
     id="Aden"
     x="0"
     y="0"
     width="2752.77"
     height="1537.63"
     xlink:href="#Tolima" />
</svg>
